<?xml version="1.0" encoding="UTF-8" standalone="no"?>
<!-- Created with Inkscape (http://www.inkscape.org/) -->

<svg
   xmlns:dc="http://purl.org/dc/elements/1.1/"
   xmlns:cc="http://creativecommons.org/ns#"
   xmlns:rdf="http://www.w3.org/1999/02/22-rdf-syntax-ns#"
   xmlns:svg="http://www.w3.org/2000/svg"
   xmlns="http://www.w3.org/2000/svg"
   xmlns:sodipodi="http://sodipodi.sourceforge.net/DTD/sodipodi-0.dtd"
   xmlns:inkscape="http://www.inkscape.org/namespaces/inkscape"
   width="800"
   height="600"
   id="svg2"
   version="1.1"
   inkscape:version="0.48.2 r9819"
   sodipodi:docname="sprites.svg">
  <defs
     id="defs4" />
  <sodipodi:namedview
     id="base"
     pagecolor="#ffffff"
     bordercolor="#666666"
     borderopacity="1.0"
     inkscape:pageopacity="0.0"
     inkscape:pageshadow="2"
     inkscape:zoom="2"
     inkscape:cx="186.20468"
     inkscape:cy="416.1907"
     inkscape:document-units="px"
     inkscape:current-layer="layer2"
     showgrid="false"
     inkscape:window-width="1210"
     inkscape:window-height="756"
     inkscape:window-x="0"
     inkscape:window-y="0"
     inkscape:window-maximized="1"
     showguides="true"
     inkscape:guide-bbox="true" />
  <metadata
     id="metadata7">
    <rdf:RDF>
      <cc:Work
         rdf:about="">
        <dc:format>image/svg+xml</dc:format>
        <dc:type
           rdf:resource="http://purl.org/dc/dcmitype/StillImage" />
        <dc:title />
      </cc:Work>
    </rdf:RDF>
  </metadata>
  <g
     inkscape:groupmode="layer"
     id="layer3"
     inkscape:label="Static"
     style="display:inline">
    <g
       style="display:inline"
       id="g3285"
       transform="translate(0.27621359,-0.27621359)">
      <rect
         y="-49.124023"
         x="-79.195961"
         height="688.72198"
         width="934.79517"
         id="rect3265"
         style="fill:#f4eed7;fill-opacity:1;stroke:none;display:inline" />
      <rect
         y="486.86292"
         x="-137.17871"
         height="185.26198"
         width="1045.1039"
         id="rect3268"
         style="fill:#aca793;fill-opacity:1;stroke:none" />
    </g>
    <g
       style="display:inline"
       id="g3274">
      <rect
         transform="matrix(0,1,-1,0,0,0)"
         style="fill:#918a6f;fill-opacity:1;stroke:#000000;stroke-width:2;stroke-opacity:1"
         id="rect3270"
         width="242.38152"
         height="32.112698"
         x="459.07855"
         y="-109.39445" />
      <rect
         y="-720.33472"
         x="471.80649"
         height="32.112698"
         width="273.21021"
         id="rect3272"
         style="fill:#918a6f;fill-opacity:1;stroke:#000000;stroke-width:2;stroke-opacity:1"
         transform="matrix(0,1,-1,0,0,0)" />
      <path
         sodipodi:nodetypes="ccccc"
         inkscape:connector-curvature="0"
         id="rect3229"
         d="m 66.468037,346.27006 663.266153,-1.28956 110.30866,175.23297 -872.569763,0 z"
         style="fill:#decd87;fill-opacity:1;stroke:#000000;stroke-width:2" />
      <rect
         y="516.56134"
         x="-31.112698"
         height="32.112698"
         width="868.32715"
         id="rect3234"
         style="fill:#decd87;fill-opacity:1;stroke:#000000;stroke-width:2;stroke-opacity:1" />
    </g>
    <g
       id="g3242"
       transform="translate(9.8994944,1.4142136)">
      <path
         sodipodi:nodetypes="cccccssscccccsssc"
         inkscape:connector-curvature="0"
         id="rect3209"
         d="m 430.26032,329.81582 -0.24306,0.43693 -0.24308,0.43694 -0.24308,0.43694 -0.24307,0.43694 c 0,0 33.90692,6.56129 44.20566,12.2906 10.29873,5.72929 4.64031,18.02985 14.93904,23.75915 10.29874,5.72929 29.15279,-2.37728 39.45152,3.35202 10.29873,5.72931 24.98863,29.34985 24.98863,29.34985 l 0.24307,-0.43693 0.24307,-0.43694 0.24309,-0.43694 0.24307,-0.43694 c 0,0 -14.6899,-23.62056 -24.98863,-29.34986 -10.29875,-5.72929 -29.15279,2.37729 -39.45152,-3.35202 -10.29873,-5.7293 -4.64032,-18.02985 -14.93904,-23.75915 -10.29874,-5.7293 -44.20567,-12.29059 -44.20567,-12.29059 z"
         style="fill:#000000;fill-opacity:1;stroke:none" />
      <g
         transform="translate(-12,-8)"
         id="g3212">
        <path
           style="fill:#e6e6e6;fill-opacity:1;stroke:#000000;stroke-width:2;stroke-opacity:1"
           d="m 612.09866,425.29921 c 2.50556,18.3995 -19.32375,40.30595 -40.48127,25.65549 -13.16368,-9.11514 -24.40954,-22.87363 -23.78884,-36.72334 0.62022,-13.83909 7.93316,-26.35525 21.6953,-27.90341 15.91115,-1.78992 39.81783,18.72556 42.57481,38.97126 z"
           id="path3196"
           inkscape:connector-curvature="0"
           sodipodi:nodetypes="sssss" />
        <path
           sodipodi:nodetypes="cscsc"
           inkscape:connector-curvature="0"
           id="path3199"
           d="m 569.61628,448.30885 c -12.52924,-11.97675 -18.88418,-17.53202 -20.99153,-29.43417 -1.85819,-10.49494 4.25025,-19.38905 6.87526,-22.50118 -1.85801,9.3498 -2.39266,17.71143 0.20523,24.54589 3.08139,8.10645 9.58404,18.97237 13.91104,27.38946 z"
           style="fill:#cccccc;fill-opacity:1;stroke:none" />
        <path
           style="fill:#999999;fill-opacity:1;stroke:#000000;stroke-width:1"
           d="m 560.90307,395.64147 3.15383,-3.01621 c 0.40037,-0.38291 0.88697,-0.13968 1.41386,0.0315 4.41489,1.43453 7.13909,5.54621 9.614,10.05266 0.26669,0.48559 0.36885,1.03095 -0.0315,1.41386 l -3.15383,3.01621 c -0.40037,0.38291 -1.17772,0.46963 -1.41386,-0.0315 -1.65333,-3.50905 -3.75844,-6.65883 -9.61401,-10.05267 -0.47931,-0.2778 -0.36884,-1.03096 0.0315,-1.41385 z"
           id="rect3203"
           inkscape:connector-curvature="0"
           sodipodi:nodetypes="sssssssss" />
        <path
           style="fill:#000000;fill-opacity:1;stroke:none"
           d="m 547.62301,417.28602 c 17.57976,0.57826 31.64996,-9.03689 42.77593,-21.95869 l 0.76179,-0.0159 c -10.96432,13.4574 -25.30114,22.68526 -43.02593,22.83369 z"
           id="rect3206"
           inkscape:connector-curvature="0"
           sodipodi:nodetypes="ccccc" />
      </g>
    </g>
    <path
       style="fill:#e6e6e6;fill-opacity:1;stroke:#000000;stroke-width:2"
       d="m 360.15075,355.20099 79.25484,0 c -4.94922,16.36702 -2.58974,30.64585 5.65685,43.24264 l -91.98276,1e-5 c 9.15076,-13.28193 9.12422,-28.0934 7.07107,-43.24265 z"
       id="rect3141"
       inkscape:connector-curvature="0"
       sodipodi:nodetypes="ccccc" />
    <path
       sodipodi:nodetypes="cccc"
       inkscape:connector-curvature="0"
       id="path3150"
       d="m 362.97918,355.20099 c 20.37453,21.62991 56.47127,14.75842 68.64823,30.51472 l -73.7193,4.60661 c 9.15076,-13.28193 7.12422,-19.97208 5.07107,-35.12133 z"
       style="fill:#cccccc;fill-opacity:1;stroke:none" />
    <path
       style="fill:#e6e6e6;fill-opacity:1;stroke:#000000;stroke-width:1.83196247"
       d="m 255.53213,135.22132 c 96.08273,-7.06257 190.75601,-6.22078 284.47013,0 5.03373,73.11964 6.76503,146.23929 0,219.35892 -94.82338,6.79027 -189.64675,6.50293 -284.47013,0 -3.77165,-74.52975 -3.33452,-147.48597 0,-219.35892 z"
       id="rect3130"
       inkscape:connector-curvature="0"
       sodipodi:nodetypes="ccccc" />
    <path
       sodipodi:nodetypes="ccccc"
       inkscape:connector-curvature="0"
       id="path3135"
       d="m 256.54311,136.60368 c 38.42421,-2.87748 69.32048,-3.98021 110.7149,-4.81898 -48.91347,8.10549 -68.2435,9.9463 -104.02936,12.75091 -4.38674,42.19949 -0.97487,47.94788 -8.42662,86.25975 0.66803,-30.84732 0.40758,-64.90871 1.74108,-94.19168 z"
       style="fill:#f9f9f9;fill-opacity:1;stroke:none" />
    <path
       style="fill:#cccccc;fill-opacity:1;stroke:none"
       d="m 539.97644,353.13585 c -33.92422,3.87748 -69.32048,3.98021 -110.7149,4.81898 48.91347,-8.10549 64.87296,-10.48251 100.65881,-13.28711 4.38674,-42.1995 5.65122,-45.96598 13.10297,-84.27785 1.83197,32.34732 -1.71338,63.46301 -3.04688,92.74598 z"
       id="path3139"
       inkscape:connector-curvature="0"
       sodipodi:nodetypes="ccccc" />
    <rect
       style="fill:#00ff00;fill-opacity:1;stroke:#000000;stroke-width:2;stroke-opacity:1"
       id="rect3133"
       width="238.30016"
       height="178.30016"
       x="278.76489"
       y="157.05629" />
    <path
       style="fill:#e6e6e6;fill-opacity:1;stroke:#000000;stroke-width:1.81169116"
       d="m 250.48624,375.20978 257.38324,4.62509 21.06222,57.07196 -309.04309,-7.14323 z"
       id="rect3182"
       inkscape:connector-curvature="0"
       sodipodi:nodetypes="ccccc" />
    <rect
       style="fill:#e6e6e6;fill-opacity:1;stroke:#000000;stroke-width:1.81170285"
       id="rect3187"
       width="309.16605"
       height="17.557056"
       x="227.52769"
       y="424.62173"
       transform="matrix(0.99973506,0.02301773,-0.01794516,0.99983897,0,0)" />
    <g
       id="g4079"
       transform="matrix(0.99885681,-0.04780226,0.04780226,0.99885681,-3.7604084,-8.0306042)">
      <path
         sodipodi:nodetypes="ccccc"
         inkscape:connector-curvature="0"
         id="rect3292"
         d="m 82.654156,361.25755 c 17.483624,23.72786 36.570294,16.60143 55.938784,0.62424 l -1.41422,74.42298 C 124.4992,454.3464 94.757925,455.37498 82.731495,433.12279 z"
         style="fill:#c83737;fill-opacity:1;stroke:#000000;stroke-width:2" />
      <path
         transform="matrix(1.1236049,0,0,1.3651239,-3.8699527,6.890067)"
         d="m 126.57212,258.46744 a 24.748737,12.020815 0 1 1 -49.497478,0 24.748737,12.020815 0 1 1 49.497478,0 z"
         sodipodi:ry="12.020815"
         sodipodi:rx="24.748737"
         sodipodi:cy="258.46744"
         sodipodi:cx="101.82338"
         id="path4063"
         style="fill:#cccccc;fill-opacity:1;stroke:#000000;stroke-width:2;stroke-opacity:1"
         sodipodi:type="arc" />
      <rect
         transform="matrix(0.77797621,-0.62829374,0.62829374,0.77797621,0,0)"
         y="325.07205"
         x="-148.70306"
         height="13.727917"
         width="8.485281"
         id="rect4065"
         style="fill:#cccccc;fill-opacity:1;stroke:#000000;stroke-width:2;stroke-opacity:1" />
      <path
         sodipodi:nodetypes="ccccc"
         inkscape:connector-curvature="0"
         id="rect4067"
         d="m 89.443482,371.9139 5.397213,3.04939 -1.149048,69.0313 -4.828213,-4.17082 z"
         style="fill:#f4d7d7;fill-opacity:1;stroke:none" />
      <path
         style="fill:#a02c2c;fill-opacity:1;stroke:none"
         d="m 137.21186,366.66584 -6.50207,5.94963 -0.50823,69.30752 6.07118,-5.41378 z"
         id="path4072"
         inkscape:connector-curvature="0"
         sodipodi:nodetypes="ccccc" />
      <path
         sodipodi:nodetypes="ccc"
         inkscape:connector-curvature="0"
         id="path4074"
         d="m 136.88311,360.95794 c -3.83138,17.56789 -45.581204,18.1108 -51.7035,2.42534 10.094295,10.54888 36.66169,6.24921 51.7035,-2.42534 z"
         style="fill:#e6e6e6;fill-opacity:1;stroke:none" />
    </g>
    <rect
       style="fill:#d7eef4;fill-opacity:1;stroke:#000000;stroke-width:2;stroke-opacity:1"
       id="rect4087"
       width="242.88097"
       height="174.29732"
       x="-74.534805"
       y="56.042065" />
    <g
       id="g4105"
       style="fill:#918a6f">
      <rect
         style="fill:#918a6f;fill-opacity:1;stroke:#000000;stroke-width:2;stroke-opacity:1"
         id="rect4103"
         width="177.51822"
         height="6.9131508"
         x="54.851326"
         y="-45.177376"
         transform="matrix(0,1,-1,0,0,0)" />
      <rect
         y="54.619473"
         x="-76.543457"
         height="6.4921341"
         width="247.39204"
         id="rect4089"
         style="fill:#918a6f;fill-opacity:1;stroke:#000000;stroke-width:2;stroke-opacity:1" />
      <rect
         style="fill:#918a6f;fill-opacity:1;stroke:#000000;stroke-width:2;stroke-opacity:1"
         id="rect4091"
         width="247.39204"
         height="6.4921341"
         x="-77.037254"
         y="225.73358" />
      <rect
         y="136.23488"
         x="-78.024857"
         height="6.4921341"
         width="247.39204"
         id="rect4101"
         style="fill:#918a6f;fill-opacity:1;stroke:#000000;stroke-width:2;stroke-opacity:1" />
      <rect
         transform="matrix(0,1,-1,0,0,0)"
         y="-170.54305"
         x="54.298901"
         height="6.9131508"
         width="177.51822"
         id="rect4093"
         style="fill:#918a6f;fill-opacity:1;stroke:#000000;stroke-width:2;stroke-opacity:1" />
    </g>
    <path
       style="fill:#f9f9f9;fill-opacity:1;stroke:none"
       d="m 288.36292,167.71638 c 38.42421,-2.87748 69.32048,-3.98021 110.7149,-4.81898 -48.91347,8.10549 -68.2435,9.9463 -104.02936,12.75091 -4.38674,42.19949 -0.97487,47.94788 -8.42662,86.25975 0.66803,-30.84732 0.40758,-64.90871 1.74108,-94.19168 z"
       id="path3207"
       inkscape:connector-curvature="0"
       sodipodi:nodetypes="ccccc" />
    <path
       sodipodi:nodetypes="ccccc"
       inkscape:connector-curvature="0"
       id="path3211"
       d="m 267.51393,384.26096 217.26335,3.90415 13.18293,40.39763 -251.32472,-6.02977 z"
       style="fill:#b3b3b3;fill-opacity:1;stroke:#000000;stroke-width:1.52929187" />
  </g>
  <g
     inkscape:groupmode="layer"
     id="layer2"
     inkscape:label="Icons"
     style="display:none">
    <g
       id="g3305"
       inkscape:export-filename="/Users/cabul/github/KeepGamersAlive/img/icons/sleep.png"
       inkscape:export-xdpi="87.272728"
       inkscape:export-ydpi="87.272728">
      <rect
         y="175"
         x="261"
         height="32"
         width="32"
         id="rect3214"
         style="fill:#de87cd;fill-opacity:1;stroke:#000000" />
      <text
         transform="matrix(0.98617499,-0.16570725,0.16570725,0.98617499,0,0)"
         sodipodi:linespacing="125%"
         id="text3216"
         y="243.31197"
         x="228.09731"
         style="font-size:22px;font-style:normal;font-variant:normal;font-weight:normal;font-stretch:normal;text-align:start;line-height:125%;letter-spacing:0px;word-spacing:0px;writing-mode:lr-tb;text-anchor:start;fill:#000000;fill-opacity:1;stroke:none;font-family:'2Dumb';-inkscape-font-specification:'2Dumb'"
         xml:space="preserve"><tspan
           y="243.31197"
           x="228.09731"
           id="tspan3218"
           sodipodi:role="line">z</tspan></text>
      <text
         transform="matrix(0.99521707,0.09768822,-0.09768822,0.99521707,0,0)"
         xml:space="preserve"
         style="font-size:22px;font-style:normal;font-variant:normal;font-weight:normal;font-stretch:normal;text-align:start;line-height:125%;letter-spacing:0px;word-spacing:0px;writing-mode:lr-tb;text-anchor:start;fill:#000000;fill-opacity:1;stroke:none;font-family:'2Dumb';-inkscape-font-specification:'2Dumb'"
         x="291.13535"
         y="161.56149"
         id="text3220"
         sodipodi:linespacing="125%"><tspan
           sodipodi:role="line"
           id="tspan3222"
           x="291.13535"
           y="161.56149">z</tspan></text>
    </g>
    <g
       id="g3299"
       inkscape:export-filename="/Users/cabul/github/KeepGamersAlive/img/icons/creativity.png"
       inkscape:export-xdpi="87.272728"
       inkscape:export-ydpi="87.272728">
      <rect
         style="fill:#ffdd55;fill-opacity:1;stroke:#000000"
         id="rect3224"
         width="32"
         height="32"
         x="211"
         y="175" />
      <path
         sodipodi:nodetypes="ccccc"
         inkscape:connector-curvature="0"
         id="rect3228"
         d="m 223.09219,191.82261 6.36396,0 0,9.54595 c -3.03714,1.83163 -4.70875,0.93222 -6.36396,0 z"
         style="fill:#ffffff;fill-opacity:1;stroke:#000000;stroke-width:1;stroke-opacity:1" />
      <path
         transform="translate(0.70710682,-1.5909902)"
         d="m 232.99169,188.64062 a 7.0710678,7.601398 0 1 1 -14.14213,0 7.0710678,7.601398 0 1 1 14.14213,0 z"
         sodipodi:ry="7.601398"
         sodipodi:rx="7.0710678"
         sodipodi:cy="188.64062"
         sodipodi:cx="225.92062"
         id="path3226"
         style="fill:#ffffff;fill-opacity:1;stroke:#000000;stroke-width:1;stroke-opacity:1"
         sodipodi:type="arc" />
      <path
         sodipodi:nodetypes="sssssss"
         inkscape:connector-curvature="0"
         id="path3234"
         d="m 226.38661,194.4259 c -2.05025,0 -2.65165,-0.89026 -2.65165,-3.62393 0,-1.36684 -0.46837,-2.51588 0.20343,-3.41161 0.6718,-0.89573 1.59987,1.9974 2.625,1.9974 1.02512,0 1.9532,-2.89313 2.625,-1.9974 0.67179,0.89573 0.32951,3.34182 0.0231,4.30754 -0.35573,1.12106 -0.77461,2.728 -2.82486,2.728 z"
         style="fill:#ffffff;fill-opacity:1;stroke:#000000;stroke-width:1;stroke-opacity:1" />
    </g>
    <g
       id="g3319"
       inkscape:export-filename="/Users/cabul/github/KeepGamersAlive/img/icons/shower.png"
       inkscape:export-xdpi="87.272728"
       inkscape:export-ydpi="87.272728">
      <rect
         y="224.85103"
         x="211"
         height="32"
         width="32"
         id="rect3237"
         style="fill:#5f8dd3;fill-opacity:1;stroke:#000000" />
      <path
         sodipodi:nodetypes="sssss"
         inkscape:connector-curvature="0"
         id="path3241"
         d="m 230.40114,241.14189 c -1.66628,2.0426 -3.51122,-0.83097 -6.08338,-2.92925 -2.57216,-2.09828 -4.89751,-2.62669 -3.23123,-4.66929 1.66628,-2.0426 5.10221,-1.99746 7.67438,0.10082 2.57215,2.09828 3.30651,5.45512 1.64023,7.49772 z"
         style="fill:#ffffff;fill-opacity:1;stroke:#000000;stroke-width:1;stroke-opacity:1" />
      <path
         sodipodi:nodetypes="ccsccsc"
         inkscape:connector-curvature="0"
         id="rect3246"
         d="m 239.86515,252.10881 -1.00603,0.60509 c -1.4287,-4.00509 -0.81436,-16.93754 -2.93822,-21.04867 -1.54332,-2.98738 -3.66377,0.0941 -6.40096,2.36422 l -1.29835,-0.94976 c 1.81559,-1.82429 6.44369,-5.97343 8.55616,-3.13516 2.11246,2.83827 2.3343,13.53894 3.0874,22.16428 z"
         style="fill:#000000;fill-opacity:1;stroke:none" />
      <rect
         inkscape:transform-center-y="2.9557721"
         inkscape:transform-center-x="5.5693516"
         style="fill:#000000;fill-opacity:1;stroke:none"
         id="rect3254"
         width="1"
         height="4"
         x="310.5419"
         y="92.751389"
         rx="1"
         ry="1"
         transform="matrix(0.86155317,0.50766734,-0.50766734,0.86155317,0,0)" />
      <rect
         inkscape:transform-center-y="5.1000904"
         inkscape:transform-center-x="3.1756054"
         style="fill:#000000;fill-opacity:1;stroke:none"
         id="rect3256"
         width="1"
         height="4"
         x="313.69284"
         y="93.383606"
         rx="1"
         ry="1"
         transform="matrix(0.86155317,0.50766734,-0.50766734,0.86155317,0,0)" />
      <rect
         inkscape:transform-center-y="7.2996053"
         inkscape:transform-center-x="0.97162016"
         transform="matrix(0.86155317,0.50766734,-0.50766734,0.86155317,0,0)"
         ry="1"
         rx="1"
         y="94.159714"
         x="316.70831"
         height="4"
         width="1"
         id="rect3258"
         style="fill:#000000;fill-opacity:1;stroke:none" />
      <rect
         inkscape:transform-center-y="7.9814704"
         inkscape:transform-center-x="8.5537162"
         transform="matrix(0.86155317,0.50766734,-0.50766734,0.86155317,0,0)"
         ry="1"
         rx="1"
         y="98.596359"
         x="310.52209"
         height="4"
         width="1"
         id="rect3260"
         style="fill:#000000;fill-opacity:1;stroke:none" />
      <rect
         inkscape:transform-center-y="9.8172939"
         inkscape:transform-center-x="6.3731765"
         style="fill:#000000;fill-opacity:1;stroke:none"
         id="rect3262"
         width="1"
         height="4"
         x="313.33273"
         y="99.07103"
         rx="1"
         ry="1"
         transform="matrix(0.86155317,0.50766734,-0.50766734,0.86155317,0,0)" />
      <rect
         inkscape:transform-center-y="11.669002"
         inkscape:transform-center-x="4.1056855"
         transform="matrix(0.86155317,0.50766734,-0.50766734,0.86155317,0,0)"
         ry="1"
         rx="1"
         y="99.515244"
         x="316.22635"
         height="4"
         width="1"
         id="rect3264"
         style="fill:#000000;fill-opacity:1;stroke:none" />
    </g>
    <g
       id="g3330"
       transform="matrix(1.03125,0,0,1.0312426,-8.1470109,-8.0405468)"
       inkscape:export-filename="/Users/cabul/github/KeepGamersAlive/img/icons/drink.png"
       inkscape:export-xdpi="87.273376"
       inkscape:export-ydpi="87.273376">
      <rect
         style="fill:#37c871;fill-opacity:1;stroke:#000000;stroke-width:0.969697"
         id="rect3266"
         width="31.030304"
         height="31.030304"
         x="261.18945"
         y="225.83588" />
      <path
         sodipodi:nodetypes="ccccc"
         inkscape:connector-curvature="0"
         id="rect3269"
         d="m 270.88618,239.6985 c 3.47528,2.33518 7.53327,0.88424 9.64626,-0.42015 l -1.58294,11.44847 c -2.90452,1.29022 -3.30372,1.45041 -5.60225,0.37421 z"
         style="fill:#ffffff;fill-opacity:1;stroke:#000000;stroke-width:1" />
      <path
         transform="matrix(0.99278842,-0.05427835,0.06631468,0.81259404,67.760319,63.237479)"
         d="m 199.40411,228.06183 a 5.2149124,3.5355339 0 1 1 -10.42983,0 5.2149124,3.5355339 0 1 1 10.42983,0 z"
         sodipodi:ry="3.5355339"
         sodipodi:rx="5.2149124"
         sodipodi:cy="228.06183"
         sodipodi:cx="194.18919"
         id="path3272"
         style="fill:#ffffff;fill-opacity:1;stroke:#000000;stroke-width:1.22789061;stroke-opacity:1"
         sodipodi:type="arc" />
      <g
         transform="translate(0.44194174,-0.88388348)"
         id="g3278">
        <rect
           style="fill:#000000;fill-opacity:1;stroke:none"
           id="rect3274"
           width="1"
           height="8.8388348"
           x="274.711"
           y="230.35994" />
        <rect
           y="349.40198"
           x="-82.774406"
           height="7.0722132"
           width="0.99999446"
           id="rect3276"
           style="fill:#000000;fill-opacity:1;stroke:none"
           transform="matrix(0.45199044,-0.89202278,0.89315,0.44975891,0,0)" />
      </g>
    </g>
    <g
       id="g3312"
       inkscape:export-filename="/Users/cabul/github/KeepGamersAlive/img/icons/eat.png"
       inkscape:export-xdpi="87.272728"
       inkscape:export-ydpi="87.272728">
      <rect
         y="224.85103"
         x="307.87363"
         height="32"
         width="32"
         id="rect3282"
         style="fill:#d35f5f;fill-opacity:1;stroke:#000000" />
      <path
         sodipodi:nodetypes="cccc"
         inkscape:connector-curvature="0"
         id="rect3289"
         d="m 331.91343,231.17189 c -0.39992,5.1325 -1.73457,6.08282 -5.52381,19.48846 l -9.9437,-8.53016 z"
         style="fill:#ffffff;fill-opacity:1;stroke:#000000" />
      <rect
         transform="matrix(0.62826986,-0.77799549,0.77799549,0.62826986,0,0)"
         ry="1.5032401"
         rx="1"
         y="396.53381"
         x="7.7631259"
         height="15.8114"
         width="3.3587573"
         id="rect3293"
         style="fill:#ffffff;fill-opacity:1;stroke:#000000;stroke-width:1;stroke-opacity:1" />
      <path
         transform="translate(7.866563,11.313709)"
         d="m 317.93289,230.44832 a 2.2539029,2.563262 0 1 1 -4.50781,0 2.2539029,2.563262 0 1 1 4.50781,0 z"
         sodipodi:ry="2.563262"
         sodipodi:rx="2.2539029"
         sodipodi:cy="230.44832"
         sodipodi:cx="315.67899"
         id="path3295"
         style="fill:#ffffff;fill-opacity:1;stroke:#000000;stroke-width:0.75;stroke-opacity:1"
         sodipodi:type="arc" />
      <path
         sodipodi:type="arc"
         style="fill:#ffffff;fill-opacity:1;stroke:#000000;stroke-width:0.84087265;stroke-opacity:1"
         id="path3297"
         sodipodi:cx="315.67899"
         sodipodi:cy="230.44832"
         sodipodi:rx="2.2539029"
         sodipodi:ry="2.563262"
         d="m 317.93289,230.44832 a 2.2539029,2.563262 0 1 1 -4.50781,0 2.2539029,2.563262 0 1 1 4.50781,0 z"
         transform="matrix(0.56051662,0,0,0.63079907,150.97745,91.976024)" />
    </g>
  </g>
  <g
     inkscape:groupmode="layer"
     id="layer8"
     inkscape:label="Arms"
     style="display:none">
    <g
       transform="matrix(-0.94313407,-0.33241257,-0.33241257,0.94313407,694.6121,-180.54604)"
       id="g5224"
       inkscape:export-filename="/Users/cabul/github/KeepGamersAlive/img/arm_right.png"
       inkscape:export-xdpi="90"
       inkscape:export-ydpi="90">
      <g
         id="g5226">
        <path
           style="fill:#e9c6af;fill-opacity:1;stroke:#000000;stroke-width:2;stroke-opacity:1;display:inline"
           d="m 288.87723,479.03665 c -7.54455,5.67521 -14.53307,10.49755 -21.97866,11.11666 -6.98145,0.58051 -14.97843,24.09151 -21.17416,52.70333 -5.4655,25.23963 -2.33372,70.18468 -17.85036,95.98598 -7.82868,13.01764 -51.18993,14.21373 -57.65951,-6.43542 -7.07683,-22.5873 7.35468,-72.30363 17.51826,-92.97131 11.82298,-24.0421 37.83872,-60.31263 38.38056,-69.81033 0.74738,-13.10026 2.55989,-23.6467 5.07339,-34.37237 4.39087,-18.73683 6.24741,-25.70751 12.8552,-36.87323 9.45939,-15.98434 14.85802,-16.92644 18.7214,-14.70598 5.04952,2.90217 -1.91597,9.8647 -5.58031,16.2253 -3.00393,5.21422 -7.68129,20.99973 -6.33115,19.64522 1.35017,-1.35452 10.15195,-17.73578 15.70147,-25.97846 5.68781,-8.44811 14.67438,-17.13322 21.54261,-15.06091 11.33082,3.41875 -3.88353,11.08137 -10.53198,21.05705 -5.32521,7.9902 -11.20202,23.65059 -6.756,19.63579 5.42199,-4.89608 10.2067,-13.12683 15.3363,-18.99038 6.26633,-7.16298 17.10568,-16.68241 23.02291,-13.59894 8.28886,4.31933 1.4275,11.65251 -5.25904,17.36442 -7.50326,6.40956 -18.68278,26.97385 -14.88198,24.87221 3.80081,-2.10165 12.07352,-11.60182 15.80489,-15.53412 10.44487,-11.00734 16.40366,-11.39933 21.85816,-7.07313 5.0615,4.01451 -11.05415,14.08618 -16.49996,19.9889 -6.16586,6.68321 -8.43206,9.37272 -11.13045,13.12124 -2.6984,3.74853 -5.96024,7.93237 -7.40024,14.28684 -1.52585,6.73332 4.35955,-0.63768 13.55741,-3.91574 9.86455,-3.51565 14.08693,-2.22943 13.72603,2.23792 -0.47471,5.87642 -4.98118,11.49777 -11.1169,14.01689 -6.25388,2.56762 -12.59966,8.28725 -18.94789,13.06257 z"
           id="path5228"
           inkscape:connector-curvature="0"
           sodipodi:nodetypes="sssssssssssssssssssssssssssss" />
        <path
           sodipodi:nodetypes="ccscsc"
           inkscape:connector-curvature="0"
           id="path5230"
           d="m 227.69466,636.59935 c -4.83935,2.22451 -8.62221,3.28757 -15.33497,4.68549 13.50619,-29.92364 11.67964,-61.17606 14.84226,-72.89155 6.32523,-23.43096 12.73285,-45.06816 29.63835,-67.15752 -10.15892,21.84554 -15.04328,54.99156 -17.0131,83.37823 -1.70316,24.54394 -6.6966,45.5205 -12.13254,51.98535 z"
           style="fill:#deaa87;fill-opacity:1;stroke:none" />
        <path
           sodipodi:nodetypes="cscsc"
           inkscape:connector-curvature="0"
           id="path5232"
           d="m 264.27043,489.48131 c 0.65388,-2.9077 8.81819,-7.46675 14.16754,-9.87433 5.34937,-2.4076 10.63688,-5.55016 19.7298,-9.00975 -7.17041,5.35952 -15.54243,11.48139 -20.66442,14.52755 -5.12198,3.04616 -8.53443,3.41593 -13.23292,4.35653 z"
           style="fill:#deaa87;fill-opacity:1;stroke:none" />
      </g>
      <g
         id="g5234">
        <path
           sodipodi:nodetypes="ccc"
           inkscape:connector-curvature="0"
           id="path5236"
           d="m 181.22154,609.20217 c 0,0 -3.10289,-4.58414 -0.71939,-13.76317 -4.02266,4.88375 -1.78586,14.62369 -1.78586,14.62369"
           style="fill:#28170b;fill-opacity:1;stroke:none" />
        <path
           style="fill:#28170b;fill-opacity:1;stroke:none"
           d="m 190.87038,607.93229 c 0,0 -1.91625,-5.19328 2.59373,-13.53569 -5.0741,3.77973 -5.23208,13.77196 -5.23208,13.77196"
           id="path5238"
           inkscape:connector-curvature="0"
           sodipodi:nodetypes="ccc" />
        <path
           style="fill:#28170b;fill-opacity:1;stroke:none"
           d="m 200.13776,612.2964 c 0,0 0.0663,-5.53514 7.25981,-11.71485 -6.0898,1.71674 -9.80835,10.99264 -9.80835,10.99264"
           id="path5240"
           inkscape:connector-curvature="0"
           sodipodi:nodetypes="ccc" />
        <path
           sodipodi:nodetypes="ccc"
           inkscape:connector-curvature="0"
           id="path5242"
           d="m 214.43232,613.81517 c 0,0 1.02006,-5.44075 9.17176,-10.28696 -6.29466,0.64053 -11.55752,9.13595 -11.55752,9.13595"
           style="fill:#28170b;fill-opacity:1;stroke:none" />
        <path
           style="fill:#28170b;fill-opacity:1;stroke:none"
           d="m 180.3279,589.21626 c 0,0 -1.14945,-5.41489 4.51342,-13.02198 -5.56494,3.0107 -7.15831,12.87636 -7.15831,12.87636"
           id="path5244"
           inkscape:connector-curvature="0"
           sodipodi:nodetypes="ccc" />
        <path
           sodipodi:nodetypes="ccc"
           inkscape:connector-curvature="0"
           id="path5246"
           d="m 191.01329,587.26479 c 0,0 -0.17693,-5.53272 6.73821,-12.02243 -6.00851,1.98258 -9.316,11.41286 -9.316,11.41286"
           style="fill:#28170b;fill-opacity:1;stroke:none" />
        <path
           sodipodi:nodetypes="ccc"
           inkscape:connector-curvature="0"
           id="path5248"
           d="m 205.77044,593.2582 c 0,0 -2.53156,-4.92275 0.93409,-13.75028 -4.57859,4.36685 -3.52436,14.30459 -3.52436,14.30459"
           style="fill:#28170b;fill-opacity:1;stroke:none" />
        <path
           style="fill:#28170b;fill-opacity:1;stroke:none"
           d="m 221.07136,590.518 c 0,0 -1.2488,-5.39284 4.27327,-13.10274 -5.50865,3.11249 -6.9204,13.00577 -6.9204,13.00577"
           id="path5250"
           inkscape:connector-curvature="0"
           sodipodi:nodetypes="ccc" />
        <path
           style="fill:#28170b;fill-opacity:1;stroke:none"
           d="m 186.61717,569.83882 c 0,0 -3.27491,-4.46288 -1.24204,-13.7259 -3.83412,5.03315 -1.22868,14.68102 -1.22868,14.68102"
           id="path5252"
           inkscape:connector-curvature="0"
           sodipodi:nodetypes="ccc" />
        <path
           sodipodi:nodetypes="ccc"
           inkscape:connector-curvature="0"
           id="path5254"
           d="m 197.35053,568.66881 c 0,0 -0.87638,-5.46574 5.16098,-12.77918 -5.70897,2.72776 -7.79525,12.50106 -7.79525,12.50106"
           style="fill:#28170b;fill-opacity:1;stroke:none" />
        <path
           sodipodi:nodetypes="ccc"
           inkscape:connector-curvature="0"
           id="path5256"
           d="m 210.68893,567.60437 c 0,0 -1.24881,-5.39284 4.27328,-13.10273 -5.50865,3.11249 -6.92041,13.00576 -6.92041,13.00576"
           style="fill:#28170b;fill-opacity:1;stroke:none" />
        <path
           style="fill:#28170b;fill-opacity:1;stroke:none"
           d="m 219.66747,571.97526 c 0,0 -0.56926,-5.50619 5.86774,-12.47045 -5.8526,2.40412 -8.48233,12.04542 -8.48233,12.04542"
           id="path5258"
           inkscape:connector-curvature="0"
           sodipodi:nodetypes="ccc" />
        <path
           sodipodi:nodetypes="ccc"
           inkscape:connector-curvature="0"
           id="path5260"
           d="m 192.54932,553.32694 c 0,0 -3.06472,-4.60974 -0.60509,-13.76869 -4.06307,4.85019 -1.90721,14.60838 -1.90721,14.60838"
           style="fill:#28170b;fill-opacity:1;stroke:none" />
        <path
           style="fill:#28170b;fill-opacity:1;stroke:none"
           d="m 201.84738,550.15366 c 0,0 -1.54152,-5.31657 3.55116,-13.3166 -5.33041,3.40876 -6.19963,13.36437 -6.19963,13.36437"
           id="path5262"
           inkscape:connector-curvature="0"
           sodipodi:nodetypes="ccc" />
        <path
           style="fill:#28170b;fill-opacity:1;stroke:none"
           d="m 214.94451,546.82273 c 0,0 -2.70613,-4.82899 0.44129,-13.77491 -4.41934,4.52794 -3.01005,14.42157 -3.01005,14.42157"
           id="path5264"
           inkscape:connector-curvature="0"
           sodipodi:nodetypes="ccc" />
        <path
           sodipodi:nodetypes="ccc"
           inkscape:connector-curvature="0"
           id="path5266"
           d="m 224.49731,554.05716 c 0,0 -2.13067,-5.10905 2.02829,-13.63188 -4.91243,3.98757 -4.65452,13.97772 -4.65452,13.97772"
           style="fill:#28170b;fill-opacity:1;stroke:none" />
        <path
           sodipodi:nodetypes="ccc"
           inkscape:connector-curvature="0"
           id="path5268"
           d="m 202.05703,533.93304 c 0,0 -1.97201,-5.17237 2.44795,-13.56283 -5.03313,3.8341 -5.0836,13.82747 -5.0836,13.82747"
           style="fill:#28170b;fill-opacity:1;stroke:none" />
        <path
           style="fill:#28170b;fill-opacity:1;stroke:none"
           d="m 214.8376,528.03543 c 0,0 -1.24881,-5.39285 4.27327,-13.10274 -5.50865,3.11249 -6.9204,13.00576 -6.9204,13.00576"
           id="path5270"
           inkscape:connector-curvature="0"
           sodipodi:nodetypes="ccc" />
        <path
           style="fill:#28170b;fill-opacity:1;stroke:none"
           d="m 223.38374,533.0924 c 0,0 -1.24881,-5.39284 4.27326,-13.10274 -5.50864,3.1125 -6.92039,13.00577 -6.92039,13.00577"
           id="path5272"
           inkscape:connector-curvature="0"
           sodipodi:nodetypes="ccc" />
        <path
           sodipodi:nodetypes="ccc"
           inkscape:connector-curvature="0"
           id="path5274"
           d="m 232.22224,533.57339 c 0,0 0.23783,-5.53044 7.61961,-11.48409 -6.14011,1.52705 -10.14454,10.68318 -10.14454,10.68318"
           style="fill:#28170b;fill-opacity:1;stroke:none" />
        <path
           style="fill:#28170b;fill-opacity:1;stroke:none"
           d="m 211.90439,514.71582 c 0,0 -1.81871,-5.22824 2.84661,-13.48479 -5.14395,3.6841 -5.48891,13.67164 -5.48891,13.67164"
           id="path5276"
           inkscape:connector-curvature="0"
           sodipodi:nodetypes="ccc" />
        <path
           sodipodi:nodetypes="ccc"
           inkscape:connector-curvature="0"
           id="path5278"
           d="m 224.81052,509.42254 c 0,0 -1.2488,-5.39284 4.27328,-13.10275 -5.50865,3.1125 -6.9204,13.00578 -6.9204,13.00578"
           style="fill:#28170b;fill-opacity:1;stroke:none" />
        <path
           sodipodi:nodetypes="ccc"
           inkscape:connector-curvature="0"
           id="path5280"
           d="m 233.50471,517.29826 c 0,0 -1.2488,-5.39284 4.27328,-13.10273 -5.50865,3.11249 -6.9204,13.00575 -6.9204,13.00575"
           style="fill:#28170b;fill-opacity:1;stroke:none" />
        <path
           style="fill:#28170b;fill-opacity:1;stroke:none"
           d="m 242.91724,513.65654 c 0,0 -1.04578,-5.43586 4.76143,-12.93336 -5.62145,2.90382 -7.40305,12.73723 -7.40305,12.73723"
           id="path5282"
           inkscape:connector-curvature="0"
           sodipodi:nodetypes="ccc" />
        <path
           style="fill:#28170b;fill-opacity:1;stroke:none"
           d="m 222.87865,497.36056 c 0,0 -1.2488,-5.39284 4.27328,-13.10274 -5.50865,3.11249 -6.92041,13.00577 -6.92041,13.00577"
           id="path5284"
           inkscape:connector-curvature="0"
           sodipodi:nodetypes="ccc" />
        <path
           style="fill:#28170b;fill-opacity:1;stroke:none"
           d="m 238.22291,499.44439 c 0,0 -1.24881,-5.39284 4.27327,-13.10274 -5.50866,3.11249 -6.92039,13.00576 -6.92039,13.00576"
           id="path5286"
           inkscape:connector-curvature="0"
           sodipodi:nodetypes="ccc" />
        <path
           style="fill:#28170b;fill-opacity:1;stroke:none"
           d="m 233.03002,482.82244 c 0,0 -1.2488,-5.39284 4.27328,-13.10275 -5.50865,3.11251 -6.92041,13.00578 -6.92041,13.00578"
           id="path5288"
           inkscape:connector-curvature="0"
           sodipodi:nodetypes="ccc" />
        <path
           sodipodi:nodetypes="ccc"
           inkscape:connector-curvature="0"
           id="path5290"
           d="m 252.21503,488.81351 c 0,0 -1.04578,-5.43587 4.76143,-12.93336 -5.62145,2.90382 -7.40305,12.73723 -7.40305,12.73723"
           style="fill:#28170b;fill-opacity:1;stroke:none" />
        <path
           style="fill:#28170b;fill-opacity:1;stroke:none"
           d="m 176.22154,624.45217 c 0,0 -3.10289,-4.58414 -0.71939,-13.76317 -4.02266,4.88375 -1.78585,14.62369 -1.78585,14.62369"
           id="path5292"
           inkscape:connector-curvature="0"
           sodipodi:nodetypes="ccc" />
        <path
           sodipodi:nodetypes="ccc"
           inkscape:connector-curvature="0"
           id="path5294"
           d="m 186.37038,631.1823 c 0,0 -1.91625,-5.19328 2.59373,-13.5357 -5.07409,3.77973 -5.23208,13.77196 -5.23208,13.77196"
           style="fill:#28170b;fill-opacity:1;stroke:none" />
        <path
           sodipodi:nodetypes="ccc"
           inkscape:connector-curvature="0"
           id="path5296"
           d="m 196.13776,630.04641 c 0,0 0.0663,-5.53514 7.25981,-11.71485 -6.08979,1.71674 -9.80834,10.99263 -9.80834,10.99263"
           style="fill:#28170b;fill-opacity:1;stroke:none" />
        <path
           style="fill:#28170b;fill-opacity:1;stroke:none"
           d="m 209.68232,631.56517 c 0,0 1.02007,-5.44075 9.17177,-10.28696 -6.29467,0.64053 -11.55752,9.13596 -11.55752,9.13596"
           id="path5298"
           inkscape:connector-curvature="0"
           sodipodi:nodetypes="ccc" />
      </g>
      <g
         id="g5300">
        <path
           sodipodi:nodetypes="sssss"
           inkscape:connector-curvature="0"
           id="path5302"
           d="m 260.61591,389.58878 c -1.57728,2.6968 -2.72765,3.1647 -6.19754,1.27323 -2.18593,-1.19157 -1.10364,-2.92567 1.06924,-5.17049 2.17288,-2.24482 5.20683,-2.74754 6.99567,-1.01602 1.78884,1.7315 -0.14348,1.96581 -1.86737,4.91328 z"
           style="fill:#e3e2db;fill-opacity:1;stroke:none" />
        <path
           style="fill:#e3e2db;fill-opacity:1;stroke:none"
           d="m 286.8855,385.18919 c -2.16428,2.54795 -3.56311,2.87285 -7.38654,0.47424 -2.40864,-1.51107 -0.93752,-3.14036 1.86779,-5.14634 2.80531,-2.006 6.40688,-2.11481 8.28731,-0.10444 1.88043,2.01033 -0.4031,1.99178 -2.76856,4.77656 z"
           id="path5304"
           inkscape:connector-curvature="0"
           sodipodi:nodetypes="sssss" />
        <path
           sodipodi:nodetypes="sssss"
           inkscape:connector-curvature="0"
           id="path5306"
           d="m 307.07445,393.88762 c -2.51818,2.43569 -4.01492,2.63459 -7.78068,-0.24126 -2.3723,-1.81171 -0.6708,-3.36053 2.46491,-5.16859 3.1357,-1.80808 6.91732,-1.56307 8.68717,0.71556 1.76987,2.27862 -0.61915,2.0322 -3.3714,4.69428 z"
           style="fill:#e3e2db;fill-opacity:1;stroke:none" />
        <path
           style="fill:#e3e2db;fill-opacity:1;stroke:none"
           d="m 321.76302,411.51049 c -2.53698,2.4161 -4.03521,2.60339 -7.77857,-0.30156 -2.3582,-1.83005 -0.64473,-3.36564 2.50489,-5.14934 3.14963,-1.78371 6.92923,-1.5094 8.68137,0.78288 1.75215,2.29227 -0.63489,2.02735 -3.40769,4.66801 z"
           id="path5308"
           inkscape:connector-curvature="0"
           sodipodi:nodetypes="sssss" />
        <path
           sodipodi:nodetypes="ssscs"
           inkscape:connector-curvature="0"
           id="path5310"
           d="m 310.91669,459.70836 c 1.02218,2.80452 1.32431,1.866 3.98488,-0.58817 2.66059,-2.45419 4.33467,-6.86872 2.40148,-9.01052 -1.10565,-1.22495 -0.25157,-0.32983 -4.03013,2.03538 -3.77855,2.3652 -3.97883,3.11149 -2.35623,7.56331 z"
           style="fill:#e3e2db;fill-opacity:1;stroke:none" />
        <path
           sodipodi:nodetypes="sssssssss"
           inkscape:connector-curvature="0"
           id="path5312"
           d="m 252.08892,406.21515 c -0.16309,0.5216 -0.96715,-0.11296 -1.87419,-0.0213 -0.90705,0.0916 -1.9171,0.90944 -3.13812,0.52765 -1.22101,-0.38178 -1.46444,-1.45631 -2.15774,-2.04833 -0.69329,-0.59202 -1.83644,-0.70149 -1.67333,-1.22313 0.1631,-0.52161 1.42212,-0.74775 2.14975,-0.23059 0.72762,0.51718 0.92384,1.77766 2.14486,2.15944 1.22102,0.38179 2.27829,-0.62197 3.15099,-0.63875 0.87272,-0.0167 1.56088,0.95344 1.39778,1.47505 z"
           style="fill:#deaa87;fill-opacity:1;stroke:none" />
        <path
           style="fill:#deaa87;fill-opacity:1;stroke:none"
           d="m 244.35253,400.7408 c 0.16309,-0.52159 0.96715,0.11296 1.8742,0.0214 0.90705,-0.0916 1.91709,-0.90944 3.13812,-0.52765 1.22101,0.38178 1.46443,1.45632 2.15773,2.04833 0.69329,0.59202 1.83644,0.7015 1.67334,1.22313 -0.1631,0.52161 -1.42212,0.74775 -2.14975,0.23059 -0.72763,-0.51718 -0.92385,-1.77765 -2.14486,-2.15943 -1.22102,-0.38179 -2.27829,0.62197 -3.151,0.63874 -0.87271,0.0167 -1.56088,-0.95344 -1.39778,-1.47505 z"
           id="path5314"
           inkscape:connector-curvature="0"
           sodipodi:nodetypes="sssssssss" />
        <path
           transform="matrix(0.95322988,0.30224622,-0.30224622,0.95322988,99.74837,32.32253)"
           d="m 254.4375,309 c 0,0.34518 -0.41973,0.625 -0.9375,0.625 -0.51777,0 -0.9375,-0.27982 -0.9375,-0.625 0,-0.34518 0.41973,-0.625 0.9375,-0.625 0.51777,0 0.9375,0.27982 0.9375,0.625 z"
           sodipodi:ry="0.625"
           sodipodi:rx="0.9375"
           sodipodi:cy="309"
           sodipodi:cx="253.5"
           id="path5316"
           style="fill:#deaa87;fill-opacity:1;stroke:none"
           sodipodi:type="arc" />
        <path
           style="fill:#deaa87;fill-opacity:1;stroke:none"
           d="m 273.40264,402.47193 c -0.21091,0.50417 -0.95245,-0.20244 -1.86408,-0.19561 -0.91164,0.007 -1.99339,0.72714 -3.1736,0.23341 -1.1802,-0.49372 -1.3226,-1.58624 -1.95781,-2.24019 -0.63521,-0.65395 -1.76322,-0.8693 -1.55229,-1.37351 0.21092,-0.50417 1.48552,-0.6122 2.16188,-0.0296 0.67635,0.58262 0.75446,1.85589 1.93466,2.34961 1.1802,0.49373 2.32627,-0.40732 3.19675,-0.34283 0.87049,0.0645 1.46541,1.09452 1.25449,1.59869 z"
           id="path5318"
           inkscape:connector-curvature="0"
           sodipodi:nodetypes="sssssssss" />
        <path
           sodipodi:nodetypes="sssssssss"
           inkscape:connector-curvature="0"
           id="path5320"
           d="m 266.2091,396.30159 c 0.21091,-0.50417 0.95244,0.20244 1.86408,0.19561 0.91164,-0.007 1.99339,-0.72714 3.1736,-0.23341 1.1802,0.49372 1.3226,1.58624 1.95781,2.24019 0.63521,0.65395 1.76322,0.8693 1.55229,1.37351 -0.21092,0.50417 -1.48552,0.6122 -2.16188,0.0296 -0.67635,-0.58262 -0.75446,-1.85589 -1.93466,-2.34961 -1.1802,-0.49373 -2.32627,0.40732 -3.19675,0.34283 -0.87049,-0.0645 -1.46541,-1.09452 -1.25449,-1.59869 z"
           style="fill:#deaa87;fill-opacity:1;stroke:none" />
        <path
           sodipodi:type="arc"
           style="fill:#deaa87;fill-opacity:1;stroke:none"
           id="path5322"
           sodipodi:cx="253.5"
           sodipodi:cy="309"
           sodipodi:rx="0.9375"
           sodipodi:ry="0.625"
           d="m 254.4375,309 c 0,0.34518 -0.41973,0.625 -0.9375,0.625 -0.51777,0 -0.9375,-0.27982 -0.9375,-0.625 0,-0.34518 0.41973,-0.625 0.9375,-0.625 0.51777,0 0.9375,0.27982 0.9375,0.625 z"
           transform="matrix(0.92097673,0.38961758,-0.38961758,0.92097673,156.50729,16.028131)" />
        <path
           sodipodi:nodetypes="sssssssss"
           inkscape:connector-curvature="0"
           id="path5324"
           d="m 294.0472,410.34252 c -0.33776,0.45342 -1.05534,-0.43679 -2.10349,-0.65383 -1.04815,-0.21708 -2.4269,0.23911 -3.68857,-0.5455 -1.26166,-0.78461 -1.21809,-1.91441 -1.82357,-2.72573 -0.60546,-0.81134 -1.85996,-1.30417 -1.52217,-1.75763 0.33777,-0.45344 1.8219,-0.24867 2.48814,0.50129 0.66624,0.74995 0.51457,2.04509 1.77624,2.82969 1.26167,0.78462 2.74852,0.16314 3.7359,0.44155 0.98737,0.27845 1.47529,1.45671 1.13752,1.91015 z"
           style="fill:#deaa87;fill-opacity:1;stroke:none" />
        <path
           style="fill:#deaa87;fill-opacity:1;stroke:none"
           d="m 286.95629,402.3925 c 0.33775,-0.45343 1.05534,0.43678 2.10349,0.65383 1.04814,0.21707 2.42689,-0.23912 3.68857,0.5455 1.26166,0.7846 1.21809,1.9144 1.82357,2.72573 0.60546,0.81133 1.85996,1.30417 1.52217,1.75763 -0.33777,0.45343 -1.8219,0.24866 -2.48815,-0.50129 -0.66623,-0.74996 -0.51457,-2.04509 -1.77623,-2.8297 -1.26168,-0.78462 -2.74853,-0.16313 -3.7359,-0.44154 -0.98737,-0.27845 -1.47529,-1.45671 -1.13752,-1.91015 z"
           id="path5326"
           inkscape:connector-curvature="0"
           sodipodi:nodetypes="sssssssss" />
        <path
           transform="matrix(0.98372703,0.61662205,-0.6219824,0.82723162,233.0653,-5.6242571)"
           d="m 254.4375,309 c 0,0.34518 -0.41973,0.625 -0.9375,0.625 -0.51777,0 -0.9375,-0.27982 -0.9375,-0.625 0,-0.34518 0.41973,-0.625 0.9375,-0.625 0.51777,0 0.9375,0.27982 0.9375,0.625 z"
           sodipodi:ry="0.625"
           sodipodi:rx="0.9375"
           sodipodi:cy="309"
           sodipodi:cx="253.5"
           id="path5328"
           style="fill:#deaa87;fill-opacity:1;stroke:none"
           sodipodi:type="arc" />
        <path
           style="fill:#deaa87;fill-opacity:1;stroke:none"
           d="m 294.0472,410.34252 c -0.33776,0.45342 -1.05534,-0.43679 -2.10349,-0.65383 -1.04815,-0.21708 -2.4269,0.23911 -3.68857,-0.5455 -1.26166,-0.78461 -1.21809,-1.91441 -1.82357,-2.72573 -0.60546,-0.81134 -1.85996,-1.30417 -1.52217,-1.75763 0.33777,-0.45344 1.8219,-0.24867 2.48814,0.50129 0.66624,0.74995 0.51457,2.04509 1.77624,2.82969 1.26167,0.78462 2.74852,0.16314 3.7359,0.44155 0.98737,0.27845 1.47529,1.45671 1.13752,1.91015 z"
           id="path5330"
           inkscape:connector-curvature="0"
           sodipodi:nodetypes="sssssssss" />
        <path
           sodipodi:nodetypes="sssssssss"
           inkscape:connector-curvature="0"
           id="path5332"
           d="m 286.95629,402.3925 c 0.33775,-0.45343 1.05534,0.43678 2.10349,0.65383 1.04814,0.21707 2.42689,-0.23912 3.68857,0.5455 1.26166,0.7846 1.21809,1.9144 1.82357,2.72573 0.60546,0.81133 1.85996,1.30417 1.52217,1.75763 -0.33777,0.45343 -1.8219,0.24866 -2.48815,-0.50129 -0.66623,-0.74996 -0.51457,-2.04509 -1.77623,-2.8297 -1.26168,-0.78462 -2.74853,-0.16313 -3.7359,-0.44154 -0.98737,-0.27845 -1.47529,-1.45671 -1.13752,-1.91015 z"
           style="fill:#deaa87;fill-opacity:1;stroke:none" />
        <path
           sodipodi:type="arc"
           style="fill:#deaa87;fill-opacity:1;stroke:none"
           id="path5334"
           sodipodi:cx="253.5"
           sodipodi:cy="309"
           sodipodi:rx="0.9375"
           sodipodi:ry="0.625"
           d="m 254.4375,309 c 0,0.34518 -0.41973,0.625 -0.9375,0.625 -0.51777,0 -0.9375,-0.27982 -0.9375,-0.625 0,-0.34518 0.41973,-0.625 0.9375,-0.625 0.51777,0 0.9375,0.27982 0.9375,0.625 z"
           transform="matrix(0.98372703,0.61662205,-0.6219824,0.82723162,233.0653,-5.6242571)" />
        <path
           sodipodi:nodetypes="sssssssss"
           inkscape:connector-curvature="0"
           id="path5336"
           d="m 310.14649,423.29822 c -0.29466,0.46026 -0.90329,-0.3636 -1.80245,-0.51403 -0.89916,-0.15046 -2.0889,0.37262 -3.16633,-0.31717 -1.07741,-0.68978 -1.02935,-1.79049 -1.54232,-2.54415 -0.51296,-0.75366 -1.58696,-1.16024 -1.29227,-1.62054 0.29467,-0.46026 1.56881,-0.34695 2.13461,0.34354 0.56579,0.6905 0.42323,1.95817 1.50065,2.64795 1.07743,0.68979 2.36166,-2e-4 3.208,0.21338 0.84633,0.21362 1.25479,1.33075 0.96011,1.79101 z"
           style="fill:#deaa87;fill-opacity:1;stroke:none" />
        <path
           style="fill:#deaa87;fill-opacity:1;stroke:none"
           d="m 304.12433,415.98018 c 0.29466,-0.46026 0.90329,0.3636 1.80245,0.51403 0.89916,0.15046 2.0889,-0.37262 3.16633,0.31717 1.07741,0.68978 1.02935,1.79049 1.54232,2.54415 0.51296,0.75366 1.58696,1.16025 1.29227,1.62054 -0.29467,0.46026 -1.56881,0.34695 -2.13461,-0.34354 -0.56579,-0.69049 -0.42323,-1.95816 -1.50065,-2.64794 -1.07743,-0.68979 -2.36166,2e-4 -3.208,-0.21339 -0.84633,-0.21362 -1.25479,-1.33074 -0.96011,-1.79101 z"
           id="path5338"
           inkscape:connector-curvature="0"
           sodipodi:nodetypes="sssssssss" />
        <path
           transform="matrix(0.8400241,0.54254907,-0.54254907,0.8400241,261.61899,22.488523)"
           d="m 254.4375,309 c 0,0.34518 -0.41973,0.625 -0.9375,0.625 -0.51777,0 -0.9375,-0.27982 -0.9375,-0.625 0,-0.34518 0.41973,-0.625 0.9375,-0.625 0.51777,0 0.9375,0.27982 0.9375,0.625 z"
           sodipodi:ry="0.625"
           sodipodi:rx="0.9375"
           sodipodi:cy="309"
           sodipodi:cx="253.5"
           id="path5340"
           style="fill:#deaa87;fill-opacity:1;stroke:none"
           sodipodi:type="arc" />
        <path
           style="fill:#deaa87;fill-opacity:1;stroke:none"
           d="m 303.58172,464.35579 c -0.5392,0.089 -0.33425,-0.91456 -0.82416,-1.6834 -0.48988,-0.76886 -1.67472,-1.30295 -1.8831,-2.56518 -0.20839,-1.26222 0.64173,-1.96306 0.85852,-2.84858 0.2168,-0.88552 -0.19975,-1.95569 0.3395,-2.04471 0.53921,-0.089 1.30762,0.93363 1.17312,1.81614 -0.13451,0.8825 -1.17193,1.62485 -0.96354,2.88707 0.20839,1.26223 1.58049,1.75485 1.98811,2.52669 0.40759,0.77187 -0.14923,1.82294 -0.68844,1.91196 z"
           id="path5342"
           inkscape:connector-curvature="0"
           sodipodi:nodetypes="sssssssss" />
        <path
           sodipodi:nodetypes="sssssssss"
           inkscape:connector-curvature="0"
           id="path5344"
           d="m 304.99003,454.98365 c 0.5392,-0.089 0.33425,0.91456 0.82416,1.6834 0.48988,0.76886 1.67471,1.30294 1.8831,2.56518 0.20839,1.26222 -0.64174,1.96306 -0.85852,2.84858 -0.21681,0.88552 0.19974,1.95569 -0.3395,2.04471 -0.53922,0.089 -1.30763,-0.93363 -1.17313,-1.81614 0.13451,-0.8825 1.17193,-1.62485 0.96354,-2.88707 -0.20838,-1.26223 -1.58049,-1.75485 -1.98811,-2.52669 -0.40759,-0.77187 0.14923,-1.82294 0.68845,-1.91196 z"
           style="fill:#deaa87;fill-opacity:1;stroke:none" />
        <path
           sodipodi:type="arc"
           style="fill:#deaa87;fill-opacity:1;stroke:none"
           id="path5346"
           sodipodi:cx="253.5"
           sodipodi:cy="309"
           sodipodi:rx="0.9375"
           sodipodi:ry="0.625"
           d="m 254.4375,309 c 0,0.34518 -0.41973,0.625 -0.9375,0.625 -0.51777,0 -0.9375,-0.27982 -0.9375,-0.625 0,-0.34518 0.41973,-0.625 0.9375,-0.625 0.51777,0 0.9375,0.27982 0.9375,0.625 z"
           transform="matrix(0.15893972,0.98728827,-0.98728827,0.15893972,568.95583,160.08631)" />
        <path
           sodipodi:nodetypes="sssssssss"
           inkscape:connector-curvature="0"
           id="path5348"
           d="m 303.58172,464.35579 c -0.5392,0.089 -0.33425,-0.91456 -0.82416,-1.6834 -0.48988,-0.76886 -1.67472,-1.30295 -1.8831,-2.56518 -0.20839,-1.26222 0.64173,-1.96306 0.85852,-2.84858 0.2168,-0.88552 -0.19975,-1.95569 0.3395,-2.04471 0.53921,-0.089 1.30762,0.93363 1.17312,1.81614 -0.13451,0.8825 -1.17193,1.62485 -0.96354,2.88707 0.20839,1.26223 1.58049,1.75485 1.98811,2.52669 0.40759,0.77187 -0.14923,1.82294 -0.68844,1.91196 z"
           style="fill:#deaa87;fill-opacity:1;stroke:none" />
        <path
           style="fill:#deaa87;fill-opacity:1;stroke:none"
           d="m 304.99003,454.98365 c 0.5392,-0.089 0.33425,0.91456 0.82416,1.6834 0.48988,0.76886 1.67471,1.30294 1.8831,2.56518 0.20839,1.26222 -0.64174,1.96306 -0.85852,2.84858 -0.21681,0.88552 0.19974,1.95569 -0.3395,2.04471 -0.53922,0.089 -1.30763,-0.93363 -1.17313,-1.81614 0.13451,-0.8825 1.17193,-1.62485 0.96354,-2.88707 -0.20838,-1.26223 -1.58049,-1.75485 -1.98811,-2.52669 -0.40759,-0.77187 0.14923,-1.82294 0.68845,-1.91196 z"
           id="path5350"
           inkscape:connector-curvature="0"
           sodipodi:nodetypes="sssssssss" />
        <path
           transform="matrix(0.15893972,0.98728827,-0.98728827,0.15893972,568.95583,160.08631)"
           d="m 254.4375,309 c 0,0.34518 -0.41973,0.625 -0.9375,0.625 -0.51777,0 -0.9375,-0.27982 -0.9375,-0.625 0,-0.34518 0.41973,-0.625 0.9375,-0.625 0.51777,0 0.9375,0.27982 0.9375,0.625 z"
           sodipodi:ry="0.625"
           sodipodi:rx="0.9375"
           sodipodi:cy="309"
           sodipodi:cx="253.5"
           id="path5352"
           style="fill:#deaa87;fill-opacity:1;stroke:none"
           sodipodi:type="arc" />
      </g>
    </g>
    <g
       id="g5409"
       transform="matrix(0.94544344,-0.32578626,0.32578626,0.94544344,-217.87108,-13.24607)"
       inkscape:export-xdpi="90"
       inkscape:export-ydpi="90"
       inkscape:export-filename="/Users/cabul/github/KeepGamersAlive/arm_left.png">
      <g
         transform="translate(48.357865,-166.94008)"
         id="g5158">
        <g
           id="g5125">
          <path
             style="fill:#e9c6af;fill-opacity:1;stroke:#000000;stroke-width:2;stroke-opacity:1;display:inline"
             d="m 288.87723,479.03665 c -7.54455,5.67521 -14.53307,10.49755 -21.97866,11.11666 -6.98145,0.58051 -14.97843,24.09151 -21.17416,52.70333 -5.4655,25.23963 -2.33372,70.18468 -17.85036,95.98598 -7.82868,13.01764 -51.18993,14.21373 -57.65951,-6.43542 -7.07683,-22.5873 7.35468,-72.30363 17.51826,-92.97131 11.82298,-24.0421 37.83872,-60.31263 38.38056,-69.81033 0.74738,-13.10026 2.55989,-23.6467 5.07339,-34.37237 4.39087,-18.73683 6.24741,-25.70751 12.8552,-36.87323 9.45939,-15.98434 14.85802,-16.92644 18.7214,-14.70598 5.04952,2.90217 -1.91597,9.8647 -5.58031,16.2253 -3.00393,5.21422 -7.68129,20.99973 -6.33115,19.64522 1.35017,-1.35452 10.15195,-17.73578 15.70147,-25.97846 5.68781,-8.44811 14.67438,-17.13322 21.54261,-15.06091 11.33082,3.41875 -3.88353,11.08137 -10.53198,21.05705 -5.32521,7.9902 -11.20202,23.65059 -6.756,19.63579 5.42199,-4.89608 10.2067,-13.12683 15.3363,-18.99038 6.26633,-7.16298 17.10568,-16.68241 23.02291,-13.59894 8.28886,4.31933 1.4275,11.65251 -5.25904,17.36442 -7.50326,6.40956 -18.68278,26.97385 -14.88198,24.87221 3.80081,-2.10165 12.07352,-11.60182 15.80489,-15.53412 10.44487,-11.00734 16.40366,-11.39933 21.85816,-7.07313 5.0615,4.01451 -11.05415,14.08618 -16.49996,19.9889 -6.16586,6.68321 -8.43206,9.37272 -11.13045,13.12124 -2.6984,3.74853 -5.96024,7.93237 -7.40024,14.28684 -1.52585,6.73332 4.35955,-0.63768 13.55741,-3.91574 9.86455,-3.51565 14.08693,-2.22943 13.72603,2.23792 -0.47471,5.87642 -4.98118,11.49777 -11.1169,14.01689 -6.25388,2.56762 -12.59966,8.28725 -18.94789,13.06257 z"
             id="path4189"
             inkscape:connector-curvature="0"
             sodipodi:nodetypes="sssssssssssssssssssssssssssss" />
          <path
             sodipodi:nodetypes="ccscsc"
             inkscape:connector-curvature="0"
             id="path4193"
             d="m 227.69466,636.59935 c -4.83935,2.22451 -8.62221,3.28757 -15.33497,4.68549 13.50619,-29.92364 11.67964,-61.17606 14.84226,-72.89155 6.32523,-23.43096 12.73285,-45.06816 29.63835,-67.15752 -10.15892,21.84554 -15.04328,54.99156 -17.0131,83.37823 -1.70316,24.54394 -6.6966,45.5205 -12.13254,51.98535 z"
             style="fill:#deaa87;fill-opacity:1;stroke:none" />
          <path
             sodipodi:nodetypes="cscsc"
             inkscape:connector-curvature="0"
             id="path4582"
             d="m 264.27043,489.48131 c 0.65388,-2.9077 8.81819,-7.46675 14.16754,-9.87433 5.34937,-2.4076 10.63688,-5.55016 19.7298,-9.00975 -7.17041,5.35952 -15.54243,11.48139 -20.66442,14.52755 -5.12198,3.04616 -8.53443,3.41593 -13.23292,4.35653 z"
             style="fill:#deaa87;fill-opacity:1;stroke:none" />
        </g>
        <g
           id="g5091">
          <path
             sodipodi:nodetypes="ccc"
             inkscape:connector-curvature="0"
             id="path4198"
             d="m 181.22154,609.20217 c 0,0 -3.10289,-4.58414 -0.71939,-13.76317 -4.02266,4.88375 -1.78586,14.62369 -1.78586,14.62369"
             style="fill:#28170b;fill-opacity:1;stroke:none" />
          <path
             style="fill:#28170b;fill-opacity:1;stroke:none"
             d="m 190.87038,607.93229 c 0,0 -1.91625,-5.19328 2.59373,-13.53569 -5.0741,3.77973 -5.23208,13.77196 -5.23208,13.77196"
             id="path4203"
             inkscape:connector-curvature="0"
             sodipodi:nodetypes="ccc" />
          <path
             style="fill:#28170b;fill-opacity:1;stroke:none"
             d="m 200.13776,612.2964 c 0,0 0.0663,-5.53514 7.25981,-11.71485 -6.0898,1.71674 -9.80835,10.99264 -9.80835,10.99264"
             id="path4207"
             inkscape:connector-curvature="0"
             sodipodi:nodetypes="ccc" />
          <path
             sodipodi:nodetypes="ccc"
             inkscape:connector-curvature="0"
             id="path4209"
             d="m 214.43232,613.81517 c 0,0 1.02006,-5.44075 9.17176,-10.28696 -6.29466,0.64053 -11.55752,9.13595 -11.55752,9.13595"
             style="fill:#28170b;fill-opacity:1;stroke:none" />
          <path
             style="fill:#28170b;fill-opacity:1;stroke:none"
             d="m 180.3279,589.21626 c 0,0 -1.14945,-5.41489 4.51342,-13.02198 -5.56494,3.0107 -7.15831,12.87636 -7.15831,12.87636"
             id="path4223"
             inkscape:connector-curvature="0"
             sodipodi:nodetypes="ccc" />
          <path
             sodipodi:nodetypes="ccc"
             inkscape:connector-curvature="0"
             id="path4225"
             d="m 191.01329,587.26479 c 0,0 -0.17693,-5.53272 6.73821,-12.02243 -6.00851,1.98258 -9.316,11.41286 -9.316,11.41286"
             style="fill:#28170b;fill-opacity:1;stroke:none" />
          <path
             sodipodi:nodetypes="ccc"
             inkscape:connector-curvature="0"
             id="path4227"
             d="m 205.77044,593.2582 c 0,0 -2.53156,-4.92275 0.93409,-13.75028 -4.57859,4.36685 -3.52436,14.30459 -3.52436,14.30459"
             style="fill:#28170b;fill-opacity:1;stroke:none" />
          <path
             style="fill:#28170b;fill-opacity:1;stroke:none"
             d="m 221.07136,590.518 c 0,0 -1.2488,-5.39284 4.27327,-13.10274 -5.50865,3.11249 -6.9204,13.00577 -6.9204,13.00577"
             id="path4229"
             inkscape:connector-curvature="0"
             sodipodi:nodetypes="ccc" />
          <path
             style="fill:#28170b;fill-opacity:1;stroke:none"
             d="m 186.61717,569.83882 c 0,0 -3.27491,-4.46288 -1.24204,-13.7259 -3.83412,5.03315 -1.22868,14.68102 -1.22868,14.68102"
             id="path4241"
             inkscape:connector-curvature="0"
             sodipodi:nodetypes="ccc" />
          <path
             sodipodi:nodetypes="ccc"
             inkscape:connector-curvature="0"
             id="path4243"
             d="m 197.35053,568.66881 c 0,0 -0.87638,-5.46574 5.16098,-12.77918 -5.70897,2.72776 -7.79525,12.50106 -7.79525,12.50106"
             style="fill:#28170b;fill-opacity:1;stroke:none" />
          <path
             sodipodi:nodetypes="ccc"
             inkscape:connector-curvature="0"
             id="path4245"
             d="m 210.68893,567.60437 c 0,0 -1.24881,-5.39284 4.27328,-13.10273 -5.50865,3.11249 -6.92041,13.00576 -6.92041,13.00576"
             style="fill:#28170b;fill-opacity:1;stroke:none" />
          <path
             style="fill:#28170b;fill-opacity:1;stroke:none"
             d="m 219.66747,571.97526 c 0,0 -0.56926,-5.50619 5.86774,-12.47045 -5.8526,2.40412 -8.48233,12.04542 -8.48233,12.04542"
             id="path4247"
             inkscape:connector-curvature="0"
             sodipodi:nodetypes="ccc" />
          <path
             sodipodi:nodetypes="ccc"
             inkscape:connector-curvature="0"
             id="path4249"
             d="m 192.54932,553.32694 c 0,0 -3.06472,-4.60974 -0.60509,-13.76869 -4.06307,4.85019 -1.90721,14.60838 -1.90721,14.60838"
             style="fill:#28170b;fill-opacity:1;stroke:none" />
          <path
             style="fill:#28170b;fill-opacity:1;stroke:none"
             d="m 201.84738,550.15366 c 0,0 -1.54152,-5.31657 3.55116,-13.3166 -5.33041,3.40876 -6.19963,13.36437 -6.19963,13.36437"
             id="path4251"
             inkscape:connector-curvature="0"
             sodipodi:nodetypes="ccc" />
          <path
             style="fill:#28170b;fill-opacity:1;stroke:none"
             d="m 214.94451,546.82273 c 0,0 -2.70613,-4.82899 0.44129,-13.77491 -4.41934,4.52794 -3.01005,14.42157 -3.01005,14.42157"
             id="path4253"
             inkscape:connector-curvature="0"
             sodipodi:nodetypes="ccc" />
          <path
             sodipodi:nodetypes="ccc"
             inkscape:connector-curvature="0"
             id="path4255"
             d="m 224.49731,554.05716 c 0,0 -2.13067,-5.10905 2.02829,-13.63188 -4.91243,3.98757 -4.65452,13.97772 -4.65452,13.97772"
             style="fill:#28170b;fill-opacity:1;stroke:none" />
          <path
             sodipodi:nodetypes="ccc"
             inkscape:connector-curvature="0"
             id="path4257"
             d="m 202.05703,533.93304 c 0,0 -1.97201,-5.17237 2.44795,-13.56283 -5.03313,3.8341 -5.0836,13.82747 -5.0836,13.82747"
             style="fill:#28170b;fill-opacity:1;stroke:none" />
          <path
             style="fill:#28170b;fill-opacity:1;stroke:none"
             d="m 214.8376,528.03543 c 0,0 -1.24881,-5.39285 4.27327,-13.10274 -5.50865,3.11249 -6.9204,13.00576 -6.9204,13.00576"
             id="path4259"
             inkscape:connector-curvature="0"
             sodipodi:nodetypes="ccc" />
          <path
             style="fill:#28170b;fill-opacity:1;stroke:none"
             d="m 223.38374,533.0924 c 0,0 -1.24881,-5.39284 4.27326,-13.10274 -5.50864,3.1125 -6.92039,13.00577 -6.92039,13.00577"
             id="path4261"
             inkscape:connector-curvature="0"
             sodipodi:nodetypes="ccc" />
          <path
             sodipodi:nodetypes="ccc"
             inkscape:connector-curvature="0"
             id="path4263"
             d="m 232.22224,533.57339 c 0,0 0.23783,-5.53044 7.61961,-11.48409 -6.14011,1.52705 -10.14454,10.68318 -10.14454,10.68318"
             style="fill:#28170b;fill-opacity:1;stroke:none" />
          <path
             style="fill:#28170b;fill-opacity:1;stroke:none"
             d="m 211.90439,514.71582 c 0,0 -1.81871,-5.22824 2.84661,-13.48479 -5.14395,3.6841 -5.48891,13.67164 -5.48891,13.67164"
             id="path4265"
             inkscape:connector-curvature="0"
             sodipodi:nodetypes="ccc" />
          <path
             sodipodi:nodetypes="ccc"
             inkscape:connector-curvature="0"
             id="path4267"
             d="m 224.81052,509.42254 c 0,0 -1.2488,-5.39284 4.27328,-13.10275 -5.50865,3.1125 -6.9204,13.00578 -6.9204,13.00578"
             style="fill:#28170b;fill-opacity:1;stroke:none" />
          <path
             sodipodi:nodetypes="ccc"
             inkscape:connector-curvature="0"
             id="path4269"
             d="m 233.50471,517.29826 c 0,0 -1.2488,-5.39284 4.27328,-13.10273 -5.50865,3.11249 -6.9204,13.00575 -6.9204,13.00575"
             style="fill:#28170b;fill-opacity:1;stroke:none" />
          <path
             style="fill:#28170b;fill-opacity:1;stroke:none"
             d="m 242.91724,513.65654 c 0,0 -1.04578,-5.43586 4.76143,-12.93336 -5.62145,2.90382 -7.40305,12.73723 -7.40305,12.73723"
             id="path4271"
             inkscape:connector-curvature="0"
             sodipodi:nodetypes="ccc" />
          <path
             style="fill:#28170b;fill-opacity:1;stroke:none"
             d="m 219.69667,501.6032 c 0,0 -1.2488,-5.39284 4.27328,-13.10274 -5.50865,3.11249 -6.92041,13.00577 -6.92041,13.00577"
             id="path4273"
             inkscape:connector-curvature="0"
             sodipodi:nodetypes="ccc" />
          <path
             style="fill:#28170b;fill-opacity:1;stroke:none"
             d="m 176.22154,624.45217 c 0,0 -3.10289,-4.58414 -0.71939,-13.76317 -4.02266,4.88375 -1.78585,14.62369 -1.78585,14.62369"
             id="path4850"
             inkscape:connector-curvature="0"
             sodipodi:nodetypes="ccc" />
          <path
             sodipodi:nodetypes="ccc"
             inkscape:connector-curvature="0"
             id="path4852"
             d="m 186.37038,631.1823 c 0,0 -1.91625,-5.19328 2.59373,-13.5357 -5.07409,3.77973 -5.23208,13.77196 -5.23208,13.77196"
             style="fill:#28170b;fill-opacity:1;stroke:none" />
          <path
             sodipodi:nodetypes="ccc"
             inkscape:connector-curvature="0"
             id="path4854"
             d="m 196.13776,630.04641 c 0,0 0.0663,-5.53514 7.25981,-11.71485 -6.08979,1.71674 -9.80834,10.99263 -9.80834,10.99263"
             style="fill:#28170b;fill-opacity:1;stroke:none" />
          <path
             style="fill:#28170b;fill-opacity:1;stroke:none"
             d="m 209.68232,631.56517 c 0,0 1.02007,-5.44075 9.17177,-10.28696 -6.29467,0.64053 -11.55752,9.13596 -11.55752,9.13596"
             id="path4856"
             inkscape:connector-curvature="0"
             sodipodi:nodetypes="ccc" />
        </g>
        <g
           id="g5130">
          <path
             sodipodi:nodetypes="sssss"
             inkscape:connector-curvature="0"
             id="path4405"
             d="m 260.61591,389.58878 c -1.57728,2.6968 -2.72765,3.1647 -6.19754,1.27323 -2.18593,-1.19157 -1.10364,-2.92567 1.06924,-5.17049 2.17288,-2.24482 5.20683,-2.74754 6.99567,-1.01602 1.78884,1.7315 -0.14348,1.96581 -1.86737,4.91328 z"
             style="fill:#e3e2db;fill-opacity:1;stroke:none" />
          <path
             style="fill:#e3e2db;fill-opacity:1;stroke:none"
             d="m 286.8855,385.18919 c -2.16428,2.54795 -3.56311,2.87285 -7.38654,0.47424 -2.40864,-1.51107 -0.93752,-3.14036 1.86779,-5.14634 2.80531,-2.006 6.40688,-2.11481 8.28731,-0.10444 1.88043,2.01033 -0.4031,1.99178 -2.76856,4.77656 z"
             id="path4468"
             inkscape:connector-curvature="0"
             sodipodi:nodetypes="sssss" />
          <path
             sodipodi:nodetypes="sssss"
             inkscape:connector-curvature="0"
             id="path4470"
             d="m 307.07445,393.88762 c -2.51818,2.43569 -4.01492,2.63459 -7.78068,-0.24126 -2.3723,-1.81171 -0.6708,-3.36053 2.46491,-5.16859 3.1357,-1.80808 6.91732,-1.56307 8.68717,0.71556 1.76987,2.27862 -0.61915,2.0322 -3.3714,4.69428 z"
             style="fill:#e3e2db;fill-opacity:1;stroke:none" />
          <path
             style="fill:#e3e2db;fill-opacity:1;stroke:none"
             d="m 321.76302,411.51049 c -2.53698,2.4161 -4.03521,2.60339 -7.77857,-0.30156 -2.3582,-1.83005 -0.64473,-3.36564 2.50489,-5.14934 3.14963,-1.78371 6.92923,-1.5094 8.68137,0.78288 1.75215,2.29227 -0.63489,2.02735 -3.40769,4.66801 z"
             id="path4472"
             inkscape:connector-curvature="0"
             sodipodi:nodetypes="sssss" />
          <path
             sodipodi:nodetypes="ssscs"
             inkscape:connector-curvature="0"
             id="path4474"
             d="m 310.91669,459.70836 c 1.02218,2.80452 1.32431,1.866 3.98488,-0.58817 2.66059,-2.45419 4.33467,-6.86872 2.40148,-9.01052 -1.10565,-1.22495 -0.25157,-0.32983 -4.03013,2.03538 -3.77855,2.3652 -3.97883,3.11149 -2.35623,7.56331 z"
             style="fill:#e3e2db;fill-opacity:1;stroke:none" />
          <path
             sodipodi:nodetypes="sssssssss"
             inkscape:connector-curvature="0"
             id="path4476"
             d="m 252.08892,406.21515 c -0.16309,0.5216 -0.96715,-0.11296 -1.87419,-0.0213 -0.90705,0.0916 -1.9171,0.90944 -3.13812,0.52765 -1.22101,-0.38178 -1.46444,-1.45631 -2.15774,-2.04833 -0.69329,-0.59202 -1.83644,-0.70149 -1.67333,-1.22313 0.1631,-0.52161 1.42212,-0.74775 2.14975,-0.23059 0.72762,0.51718 0.92384,1.77766 2.14486,2.15944 1.22102,0.38179 2.27829,-0.62197 3.15099,-0.63875 0.87272,-0.0167 1.56088,0.95344 1.39778,1.47505 z"
             style="fill:#deaa87;fill-opacity:1;stroke:none" />
          <path
             style="fill:#deaa87;fill-opacity:1;stroke:none"
             d="m 244.35253,400.7408 c 0.16309,-0.52159 0.96715,0.11296 1.8742,0.0214 0.90705,-0.0916 1.91709,-0.90944 3.13812,-0.52765 1.22101,0.38178 1.46443,1.45632 2.15773,2.04833 0.69329,0.59202 1.83644,0.7015 1.67334,1.22313 -0.1631,0.52161 -1.42212,0.74775 -2.14975,0.23059 -0.72763,-0.51718 -0.92385,-1.77765 -2.14486,-2.15943 -1.22102,-0.38179 -2.27829,0.62197 -3.151,0.63874 -0.87271,0.0167 -1.56088,-0.95344 -1.39778,-1.47505 z"
             id="path4479"
             inkscape:connector-curvature="0"
             sodipodi:nodetypes="sssssssss" />
          <path
             transform="matrix(0.95322988,0.30224622,-0.30224622,0.95322988,99.74837,32.32253)"
             d="m 254.4375,309 c 0,0.34518 -0.41973,0.625 -0.9375,0.625 -0.51777,0 -0.9375,-0.27982 -0.9375,-0.625 0,-0.34518 0.41973,-0.625 0.9375,-0.625 0.51777,0 0.9375,0.27982 0.9375,0.625 z"
             sodipodi:ry="0.625"
             sodipodi:rx="0.9375"
             sodipodi:cy="309"
             sodipodi:cx="253.5"
             id="path4481"
             style="fill:#deaa87;fill-opacity:1;stroke:none"
             sodipodi:type="arc" />
          <path
             style="fill:#deaa87;fill-opacity:1;stroke:none"
             d="m 273.40264,402.47193 c -0.21091,0.50417 -0.95245,-0.20244 -1.86408,-0.19561 -0.91164,0.007 -1.99339,0.72714 -3.1736,0.23341 -1.1802,-0.49372 -1.3226,-1.58624 -1.95781,-2.24019 -0.63521,-0.65395 -1.76322,-0.8693 -1.55229,-1.37351 0.21092,-0.50417 1.48552,-0.6122 2.16188,-0.0296 0.67635,0.58262 0.75446,1.85589 1.93466,2.34961 1.1802,0.49373 2.32627,-0.40732 3.19675,-0.34283 0.87049,0.0645 1.46541,1.09452 1.25449,1.59869 z"
             id="path4496"
             inkscape:connector-curvature="0"
             sodipodi:nodetypes="sssssssss" />
          <path
             sodipodi:nodetypes="sssssssss"
             inkscape:connector-curvature="0"
             id="path4498"
             d="m 266.2091,396.30159 c 0.21091,-0.50417 0.95244,0.20244 1.86408,0.19561 0.91164,-0.007 1.99339,-0.72714 3.1736,-0.23341 1.1802,0.49372 1.3226,1.58624 1.95781,2.24019 0.63521,0.65395 1.76322,0.8693 1.55229,1.37351 -0.21092,0.50417 -1.48552,0.6122 -2.16188,0.0296 -0.67635,-0.58262 -0.75446,-1.85589 -1.93466,-2.34961 -1.1802,-0.49373 -2.32627,0.40732 -3.19675,0.34283 -0.87049,-0.0645 -1.46541,-1.09452 -1.25449,-1.59869 z"
             style="fill:#deaa87;fill-opacity:1;stroke:none" />
          <path
             sodipodi:type="arc"
             style="fill:#deaa87;fill-opacity:1;stroke:none"
             id="path4500"
             sodipodi:cx="253.5"
             sodipodi:cy="309"
             sodipodi:rx="0.9375"
             sodipodi:ry="0.625"
             d="m 254.4375,309 c 0,0.34518 -0.41973,0.625 -0.9375,0.625 -0.51777,0 -0.9375,-0.27982 -0.9375,-0.625 0,-0.34518 0.41973,-0.625 0.9375,-0.625 0.51777,0 0.9375,0.27982 0.9375,0.625 z"
             transform="matrix(0.92097673,0.38961758,-0.38961758,0.92097673,156.50729,16.028131)" />
          <path
             sodipodi:nodetypes="sssssssss"
             inkscape:connector-curvature="0"
             id="path4504"
             d="m 294.0472,410.34252 c -0.33776,0.45342 -1.05534,-0.43679 -2.10349,-0.65383 -1.04815,-0.21708 -2.4269,0.23911 -3.68857,-0.5455 -1.26166,-0.78461 -1.21809,-1.91441 -1.82357,-2.72573 -0.60546,-0.81134 -1.85996,-1.30417 -1.52217,-1.75763 0.33777,-0.45344 1.8219,-0.24867 2.48814,0.50129 0.66624,0.74995 0.51457,2.04509 1.77624,2.82969 1.26167,0.78462 2.74852,0.16314 3.7359,0.44155 0.98737,0.27845 1.47529,1.45671 1.13752,1.91015 z"
             style="fill:#deaa87;fill-opacity:1;stroke:none" />
          <path
             style="fill:#deaa87;fill-opacity:1;stroke:none"
             d="m 286.95629,402.3925 c 0.33775,-0.45343 1.05534,0.43678 2.10349,0.65383 1.04814,0.21707 2.42689,-0.23912 3.68857,0.5455 1.26166,0.7846 1.21809,1.9144 1.82357,2.72573 0.60546,0.81133 1.85996,1.30417 1.52217,1.75763 -0.33777,0.45343 -1.8219,0.24866 -2.48815,-0.50129 -0.66623,-0.74996 -0.51457,-2.04509 -1.77623,-2.8297 -1.26168,-0.78462 -2.74853,-0.16313 -3.7359,-0.44154 -0.98737,-0.27845 -1.47529,-1.45671 -1.13752,-1.91015 z"
             id="path4506"
             inkscape:connector-curvature="0"
             sodipodi:nodetypes="sssssssss" />
          <path
             transform="matrix(0.98372703,0.61662205,-0.6219824,0.82723162,233.0653,-5.6242571)"
             d="m 254.4375,309 c 0,0.34518 -0.41973,0.625 -0.9375,0.625 -0.51777,0 -0.9375,-0.27982 -0.9375,-0.625 0,-0.34518 0.41973,-0.625 0.9375,-0.625 0.51777,0 0.9375,0.27982 0.9375,0.625 z"
             sodipodi:ry="0.625"
             sodipodi:rx="0.9375"
             sodipodi:cy="309"
             sodipodi:cx="253.5"
             id="path4508"
             style="fill:#deaa87;fill-opacity:1;stroke:none"
             sodipodi:type="arc" />
          <path
             style="fill:#deaa87;fill-opacity:1;stroke:none"
             d="m 294.0472,410.34252 c -0.33776,0.45342 -1.05534,-0.43679 -2.10349,-0.65383 -1.04815,-0.21708 -2.4269,0.23911 -3.68857,-0.5455 -1.26166,-0.78461 -1.21809,-1.91441 -1.82357,-2.72573 -0.60546,-0.81134 -1.85996,-1.30417 -1.52217,-1.75763 0.33777,-0.45344 1.8219,-0.24867 2.48814,0.50129 0.66624,0.74995 0.51457,2.04509 1.77624,2.82969 1.26167,0.78462 2.74852,0.16314 3.7359,0.44155 0.98737,0.27845 1.47529,1.45671 1.13752,1.91015 z"
             id="path4512"
             inkscape:connector-curvature="0"
             sodipodi:nodetypes="sssssssss" />
          <path
             sodipodi:nodetypes="sssssssss"
             inkscape:connector-curvature="0"
             id="path4514"
             d="m 286.95629,402.3925 c 0.33775,-0.45343 1.05534,0.43678 2.10349,0.65383 1.04814,0.21707 2.42689,-0.23912 3.68857,0.5455 1.26166,0.7846 1.21809,1.9144 1.82357,2.72573 0.60546,0.81133 1.85996,1.30417 1.52217,1.75763 -0.33777,0.45343 -1.8219,0.24866 -2.48815,-0.50129 -0.66623,-0.74996 -0.51457,-2.04509 -1.77623,-2.8297 -1.26168,-0.78462 -2.74853,-0.16313 -3.7359,-0.44154 -0.98737,-0.27845 -1.47529,-1.45671 -1.13752,-1.91015 z"
             style="fill:#deaa87;fill-opacity:1;stroke:none" />
          <path
             sodipodi:type="arc"
             style="fill:#deaa87;fill-opacity:1;stroke:none"
             id="path4516"
             sodipodi:cx="253.5"
             sodipodi:cy="309"
             sodipodi:rx="0.9375"
             sodipodi:ry="0.625"
             d="m 254.4375,309 c 0,0.34518 -0.41973,0.625 -0.9375,0.625 -0.51777,0 -0.9375,-0.27982 -0.9375,-0.625 0,-0.34518 0.41973,-0.625 0.9375,-0.625 0.51777,0 0.9375,0.27982 0.9375,0.625 z"
             transform="matrix(0.98372703,0.61662205,-0.6219824,0.82723162,233.0653,-5.6242571)" />
          <path
             sodipodi:nodetypes="sssssssss"
             inkscape:connector-curvature="0"
             id="path4520"
             d="m 310.14649,423.29822 c -0.29466,0.46026 -0.90329,-0.3636 -1.80245,-0.51403 -0.89916,-0.15046 -2.0889,0.37262 -3.16633,-0.31717 -1.07741,-0.68978 -1.02935,-1.79049 -1.54232,-2.54415 -0.51296,-0.75366 -1.58696,-1.16024 -1.29227,-1.62054 0.29467,-0.46026 1.56881,-0.34695 2.13461,0.34354 0.56579,0.6905 0.42323,1.95817 1.50065,2.64795 1.07743,0.68979 2.36166,-2e-4 3.208,0.21338 0.84633,0.21362 1.25479,1.33075 0.96011,1.79101 z"
             style="fill:#deaa87;fill-opacity:1;stroke:none" />
          <path
             style="fill:#deaa87;fill-opacity:1;stroke:none"
             d="m 304.12433,415.98018 c 0.29466,-0.46026 0.90329,0.3636 1.80245,0.51403 0.89916,0.15046 2.0889,-0.37262 3.16633,0.31717 1.07741,0.68978 1.02935,1.79049 1.54232,2.54415 0.51296,0.75366 1.58696,1.16025 1.29227,1.62054 -0.29467,0.46026 -1.56881,0.34695 -2.13461,-0.34354 -0.56579,-0.69049 -0.42323,-1.95816 -1.50065,-2.64794 -1.07743,-0.68979 -2.36166,2e-4 -3.208,-0.21339 -0.84633,-0.21362 -1.25479,-1.33074 -0.96011,-1.79101 z"
             id="path4522"
             inkscape:connector-curvature="0"
             sodipodi:nodetypes="sssssssss" />
          <path
             transform="matrix(0.8400241,0.54254907,-0.54254907,0.8400241,261.61899,22.488523)"
             d="m 254.4375,309 c 0,0.34518 -0.41973,0.625 -0.9375,0.625 -0.51777,0 -0.9375,-0.27982 -0.9375,-0.625 0,-0.34518 0.41973,-0.625 0.9375,-0.625 0.51777,0 0.9375,0.27982 0.9375,0.625 z"
             sodipodi:ry="0.625"
             sodipodi:rx="0.9375"
             sodipodi:cy="309"
             sodipodi:cx="253.5"
             id="path4524"
             style="fill:#deaa87;fill-opacity:1;stroke:none"
             sodipodi:type="arc" />
          <path
             style="fill:#deaa87;fill-opacity:1;stroke:none"
             d="m 303.58172,464.35579 c -0.5392,0.089 -0.33425,-0.91456 -0.82416,-1.6834 -0.48988,-0.76886 -1.67472,-1.30295 -1.8831,-2.56518 -0.20839,-1.26222 0.64173,-1.96306 0.85852,-2.84858 0.2168,-0.88552 -0.19975,-1.95569 0.3395,-2.04471 0.53921,-0.089 1.30762,0.93363 1.17312,1.81614 -0.13451,0.8825 -1.17193,1.62485 -0.96354,2.88707 0.20839,1.26223 1.58049,1.75485 1.98811,2.52669 0.40759,0.77187 -0.14923,1.82294 -0.68844,1.91196 z"
             id="path4528"
             inkscape:connector-curvature="0"
             sodipodi:nodetypes="sssssssss" />
          <path
             sodipodi:nodetypes="sssssssss"
             inkscape:connector-curvature="0"
             id="path4530"
             d="m 304.99003,454.98365 c 0.5392,-0.089 0.33425,0.91456 0.82416,1.6834 0.48988,0.76886 1.67471,1.30294 1.8831,2.56518 0.20839,1.26222 -0.64174,1.96306 -0.85852,2.84858 -0.21681,0.88552 0.19974,1.95569 -0.3395,2.04471 -0.53922,0.089 -1.30763,-0.93363 -1.17313,-1.81614 0.13451,-0.8825 1.17193,-1.62485 0.96354,-2.88707 -0.20838,-1.26223 -1.58049,-1.75485 -1.98811,-2.52669 -0.40759,-0.77187 0.14923,-1.82294 0.68845,-1.91196 z"
             style="fill:#deaa87;fill-opacity:1;stroke:none" />
          <path
             sodipodi:type="arc"
             style="fill:#deaa87;fill-opacity:1;stroke:none"
             id="path4532"
             sodipodi:cx="253.5"
             sodipodi:cy="309"
             sodipodi:rx="0.9375"
             sodipodi:ry="0.625"
             d="m 254.4375,309 c 0,0.34518 -0.41973,0.625 -0.9375,0.625 -0.51777,0 -0.9375,-0.27982 -0.9375,-0.625 0,-0.34518 0.41973,-0.625 0.9375,-0.625 0.51777,0 0.9375,0.27982 0.9375,0.625 z"
             transform="matrix(0.15893972,0.98728827,-0.98728827,0.15893972,568.95583,160.08631)" />
          <path
             sodipodi:nodetypes="sssssssss"
             inkscape:connector-curvature="0"
             id="path4536"
             d="m 303.58172,464.35579 c -0.5392,0.089 -0.33425,-0.91456 -0.82416,-1.6834 -0.48988,-0.76886 -1.67472,-1.30295 -1.8831,-2.56518 -0.20839,-1.26222 0.64173,-1.96306 0.85852,-2.84858 0.2168,-0.88552 -0.19975,-1.95569 0.3395,-2.04471 0.53921,-0.089 1.30762,0.93363 1.17312,1.81614 -0.13451,0.8825 -1.17193,1.62485 -0.96354,2.88707 0.20839,1.26223 1.58049,1.75485 1.98811,2.52669 0.40759,0.77187 -0.14923,1.82294 -0.68844,1.91196 z"
             style="fill:#deaa87;fill-opacity:1;stroke:none" />
          <path
             style="fill:#deaa87;fill-opacity:1;stroke:none"
             d="m 304.99003,454.98365 c 0.5392,-0.089 0.33425,0.91456 0.82416,1.6834 0.48988,0.76886 1.67471,1.30294 1.8831,2.56518 0.20839,1.26222 -0.64174,1.96306 -0.85852,2.84858 -0.21681,0.88552 0.19974,1.95569 -0.3395,2.04471 -0.53922,0.089 -1.30763,-0.93363 -1.17313,-1.81614 0.13451,-0.8825 1.17193,-1.62485 0.96354,-2.88707 -0.20838,-1.26223 -1.58049,-1.75485 -1.98811,-2.52669 -0.40759,-0.77187 0.14923,-1.82294 0.68845,-1.91196 z"
             id="path4538"
             inkscape:connector-curvature="0"
             sodipodi:nodetypes="sssssssss" />
          <path
             transform="matrix(0.15893972,0.98728827,-0.98728827,0.15893972,568.95583,160.08631)"
             d="m 254.4375,309 c 0,0.34518 -0.41973,0.625 -0.9375,0.625 -0.51777,0 -0.9375,-0.27982 -0.9375,-0.625 0,-0.34518 0.41973,-0.625 0.9375,-0.625 0.51777,0 0.9375,0.27982 0.9375,0.625 z"
             sodipodi:ry="0.625"
             sodipodi:rx="0.9375"
             sodipodi:cy="309"
             sodipodi:cx="253.5"
             id="path4540"
             style="fill:#deaa87;fill-opacity:1;stroke:none"
             sodipodi:type="arc" />
        </g>
      </g>
      <g
         id="g5398">
        <path
           style="fill:#782121;fill-opacity:1;stroke:#000000;stroke-width:1.5;stroke-opacity:1"
           d="m 272.24554,306.51843 c 2.84706,3.95034 7.28828,6.72557 11.99144,7.72249 l -6.18481,11.39149 c -3.95309,-2.20724 -8.17204,-5.29749 -10.63788,-9.28943 z"
           id="rect5358"
           inkscape:connector-curvature="0"
           sodipodi:nodetypes="ccccc" />
        <path
           sodipodi:nodetypes="ccccc"
           inkscape:connector-curvature="0"
           id="path5362"
           d="m 307.84659,336.35392 c -7.26658,-1.95443 -18.19348,-3.37922 -22.83763,-7.30047 l 6.73658,-10.58344 c 5.44913,5.78172 14.34904,6.84375 20.60019,7.95212 z"
           style="fill:#782121;fill-opacity:1;stroke:#000000;stroke-width:1.5;stroke-opacity:1" />
        <g
           id="g5376"
           transform="translate(-1.0606602,2.1213203)">
          <path
             transform="matrix(0.9043564,0.22431274,-0.20706403,0.70685138,31.572837,-24.050628)"
             d="m 375.5,369.75 c 0,7.59392 -4.70101,13.75 -10.5,13.75 -5.79899,0 -10.5,-6.15608 -10.5,-13.75 0,-7.59392 4.70101,-13.75 10.5,-13.75 5.79899,0 10.5,6.15608 10.5,13.75 z"
             sodipodi:ry="13.75"
             sodipodi:rx="10.5"
             sodipodi:cy="369.75"
             sodipodi:cx="365"
             id="path5354"
             style="fill:#afdde9;fill-opacity:1;stroke:#000000;stroke-width:1.8114506;stroke-opacity:1"
             sodipodi:type="arc" />
          <path
             sodipodi:type="arc"
             style="fill:#d7eef4;fill-opacity:1;stroke:none"
             id="path5364"
             sodipodi:cx="365"
             sodipodi:cy="369.75"
             sodipodi:rx="10.5"
             sodipodi:ry="13.75"
             d="m 375.5,369.75 c 0,7.59392 -4.70101,13.75 -10.5,13.75 -5.79899,0 -10.5,-6.15608 -10.5,-13.75 0,-7.59392 4.70101,-13.75 10.5,-13.75 5.79899,0 10.5,6.15608 10.5,13.75 z"
             transform="matrix(0.47529463,0.38741438,-0.3376892,0.47307799,235.15356,2.1674831)" />
          <rect
             transform="matrix(0.42661867,-0.90443159,0.90443159,0.42661867,0,0)"
             ry="0.5"
             rx="0.5"
             y="387.04721"
             x="-168.60526"
             height="6.75"
             width="1.5"
             id="rect5372"
             style="fill:#000000;fill-opacity:1;stroke:none" />
          <rect
             style="fill:#000000;fill-opacity:1;stroke:none"
             id="rect5374"
             width="1.5"
             height="6.75"
             x="412.85062"
             y="-115.2448"
             rx="0.5"
             ry="0.5"
             transform="matrix(0.45238571,0.89182239,-0.89182239,0.45238571,0,0)" />
        </g>
      </g>
    </g>
  </g>
  <g
     inkscape:groupmode="layer"
     id="layer6"
     inkscape:label="Frame"
     style="display:none">
    <g
       id="g3259">
      <rect
         y="-200"
         x="-200"
         height="1000"
         width="200"
         id="rect3251"
         style="fill:#000000;fill-opacity:1;stroke:none" />
      <rect
         style="fill:#000000;fill-opacity:1;stroke:none"
         id="rect3253"
         width="200"
         height="1000"
         x="800"
         y="-200" />
      <rect
         transform="matrix(0,1,-1,0,0,0)"
         style="fill:#000000;fill-opacity:1;stroke:none"
         id="rect3255"
         width="200"
         height="1000"
         x="600"
         y="-900" />
      <rect
         y="-900"
         x="-200"
         height="1000"
         width="200"
         id="rect3257"
         style="fill:#000000;fill-opacity:1;stroke:none"
         transform="matrix(0,1,-1,0,0,0)" />
    </g>
  </g>
  <g
     inkscape:label="User Interface"
     inkscape:groupmode="layer"
     id="layer1"
     transform="translate(0,-452.36218)"
     style="display:none">
    <g
       id="g3042"
       transform="translate(0,39.999997)">
      <rect
         y="552.36218"
         x="250"
         height="200"
         width="300"
         id="rect3012"
         style="fill:#afdde9;fill-opacity:1;stroke:none" />
      <rect
         y="782.36218"
         x="250"
         height="60"
         width="300"
         id="rect3014"
         style="fill:#afdde9;fill-opacity:1;stroke:none" />
    </g>
    <rect
       style="fill:#aaffcc;fill-opacity:1;stroke:none"
       id="rect3018"
       width="20"
       height="480"
       x="492.36218"
       y="-590"
       transform="matrix(0,1,-1,0,0,0)" />
    <rect
       y="-590"
       x="522.36218"
       height="480"
       width="20"
       id="rect3020"
       style="fill:#aaffcc;fill-opacity:1;stroke:none"
       transform="matrix(0,1,-1,0,0,0)" />
    <rect
       style="fill:#aaffcc;fill-opacity:1;stroke:none"
       id="rect3022"
       width="20"
       height="480"
       x="552.36218"
       y="-590"
       transform="matrix(0,1,-1,0,0,0)" />
    <rect
       style="fill:#aaffcc;fill-opacity:1;stroke:none"
       id="rect3026"
       width="20"
       height="20"
       x="492.36218"
       y="-100"
       transform="matrix(0,1,-1,0,0,0)" />
    <rect
       y="-100"
       x="522.36218"
       height="20"
       width="20"
       id="rect3028"
       style="fill:#aaffcc;fill-opacity:1;stroke:none"
       transform="matrix(0,1,-1,0,0,0)" />
    <rect
       style="fill:#aaffcc;fill-opacity:1;stroke:none"
       id="rect3030"
       width="20"
       height="20"
       x="552.36218"
       y="-100"
       transform="matrix(0,1,-1,0,0,0)" />
    <rect
       style="fill:#aaffcc;fill-opacity:1;stroke:none"
       id="rect3100"
       width="100"
       height="100"
       x="640"
       y="482.36218" />
    <g
       id="g3107"
       style="fill:#e9afaf"
       transform="matrix(0.74966196,0.38572549,-0.3574249,0.78970417,462.9584,167.10756)">
      <path
         sodipodi:nodetypes="sssss"
         inkscape:connector-curvature="0"
         id="path3102"
         d="m 160.00001,483.57142 c 0,57.9899 78.99795,65.51717 -5.71429,107.85714 -23.77081,11.88087 -47.14286,-47.0101 -47.14286,-105 0,-57.9899 21.10658,-105 47.14286,-105 26.03628,0 5.71429,44.15296 5.71429,102.14286 z"
         style="fill:#e9afaf;fill-opacity:1;stroke:none"
         transform="translate(0,452.36218)" />
      <path
         transform="translate(41.428571,475.21932)"
         d="m 157.14286,350.71429 c 0,24.85282 -18.22841,45 -40.71429,45 -22.485876,0 -40.714283,-20.14718 -40.714283,-45 0,-24.85281 18.228407,-45 40.714283,-45 22.48588,0 40.71429,20.14719 40.71429,45 z"
         sodipodi:ry="45"
         sodipodi:rx="40.714287"
         sodipodi:cy="350.71429"
         sodipodi:cx="116.42857"
         id="path3105"
         style="fill:#e9afaf;fill-opacity:1;stroke:none"
         sodipodi:type="arc" />
    </g>
    <g
       transform="matrix(-0.72561433,0.44341169,0.40351047,0.79736684,291.07371,153.42105)"
       style="fill:#e9afaf"
       id="g3111">
      <path
         transform="translate(0,452.36218)"
         style="fill:#e9afaf;fill-opacity:1;stroke:none"
         d="m 160.00001,483.57142 c 0,57.9899 78.99795,65.51717 -5.71429,107.85714 -23.77081,11.88087 -47.14286,-47.0101 -47.14286,-105 0,-57.9899 21.10658,-105 47.14286,-105 26.03628,0 5.71429,44.15296 5.71429,102.14286 z"
         id="path3113"
         inkscape:connector-curvature="0"
         sodipodi:nodetypes="sssss" />
      <path
         sodipodi:type="arc"
         style="fill:#e9afaf;fill-opacity:1;stroke:none"
         id="path3115"
         sodipodi:cx="116.42857"
         sodipodi:cy="350.71429"
         sodipodi:rx="40.714287"
         sodipodi:ry="45"
         d="m 157.14286,350.71429 c 0,24.85282 -18.22841,45 -40.71429,45 -22.485876,0 -40.714283,-20.14718 -40.714283,-45 0,-24.85281 18.228407,-45 40.714283,-45 22.48588,0 40.71429,20.14719 40.71429,45 z"
         transform="translate(41.428571,475.21932)" />
    </g>
    <rect
       style="fill:#afdde9;fill-opacity:1;stroke:none"
       id="rect3117"
       width="50"
       height="80"
       x="15.474752"
       y="803.00354"
       transform="matrix(0.99422425,-0.10732256,0.10732256,0.99422425,0,0)" />
    <path
       style="fill:#afdde9;fill-opacity:1;stroke:none"
       d="m 593.07514,784.60247 144.08458,7.61577 -32.15097,66.96776 -79.81308,-5.64918 z"
       id="rect3119"
       inkscape:connector-curvature="0"
       sodipodi:nodetypes="ccccc" />
    <rect
       y="902.36218"
       x="150"
       height="130"
       width="500"
       id="rect3122"
       style="fill:#aaffcc;fill-opacity:1;stroke:none;display:inline" />
  </g>
</svg>
